<svg xmlns="http://www.w3.org/2000/svg" xmlns:xlink="http://www.w3.org/1999/xlink" fill="none" version="1.1" width="20" height="20" viewBox="0 0 20 20"><defs><clipPath id="master_svg0_667_031138"><rect x="0" y="0" width="20" height="20" rx="0"/></clipPath></defs><g clip-path="url(#master_svg0_667_031138)"><g><path d="M14.1667,2.66667L16.6667,2.66667C17.1269,2.66667,17.5,3.03977,17.5,3.5L17.5,17.5C17.5,17.9602,17.1269,18.3333,16.6667,18.3333L3.333334,18.3333C2.873101,18.3333,2.5,17.9602,2.5,17.5L2.5,3.5C2.5,3.03977,2.8731,2.66667,3.333333,2.66667L5.83333,2.66667L5.83333,1L7.5,1L7.5,2.66667L12.5,2.66667L12.5,1L14.1667,1L14.1667,2.66667ZM5.83333,7.66667L5.83333,9.33333L14.1667,9.33333L14.1667,7.66667L5.83333,7.66667ZM5.83333,11L5.83333,12.6667L14.1667,12.6667L14.1667,11L5.83333,11Z" fill="#00C28B" fill-opacity="1"/></g></g></svg>