<svg xmlns="http://www.w3.org/2000/svg" xmlns:xlink="http://www.w3.org/1999/xlink" fill="none" version="1.1" width="20" height="20" viewBox="0 0 20 20"><defs><clipPath id="master_svg0_663_09043"><rect x="0" y="0" width="20" height="20" rx="0"/></clipPath></defs><g clip-path="url(#master_svg0_663_09043)"><g><path d="M13.3333,1.666656494140625L17.5,5.833326494140625L17.5,17.506856494140624C17.5,17.963356494140626,17.1292,18.333356494140624,16.6722,18.333356494140624L3.327833,18.333356494140624C2.8706329999999998,18.333356494140624,2.5,17.953956494140623,2.5,17.506856494140624L2.5,2.4931564941406252C2.5,2.0366984941406248,2.870792,1.666656494140625,3.327833,1.666656494140625L13.3333,1.666656494140625ZM9.16667,5.833326494140625L9.16667,14.166656494140625L10.83333,14.166656494140625L10.83333,5.833326494140625L9.16667,5.833326494140625ZM12.5,9.166656494140625L12.5,14.166656494140625L14.1667,14.166656494140625L14.1667,9.166656494140625L12.5,9.166656494140625ZM5.83333,10.833326494140625L5.83333,14.166656494140625L7.5,14.166656494140625L7.5,10.833326494140625L5.83333,10.833326494140625Z" fill="#9FA7BD" fill-opacity="1"/></g></g></svg>