<svg xmlns="http://www.w3.org/2000/svg" xmlns:xlink="http://www.w3.org/1999/xlink" fill="none" version="1.1" width="20" height="20" viewBox="0 0 20 20"><defs><clipPath id="master_svg0_667_031023"><rect x="0" y="0" width="20" height="20" rx="0"/></clipPath></defs><g clip-path="url(#master_svg0_667_031023)"><g><path d="M4.696762907714843,10.5892627734375L6.220452907714844,12.1128927734375L7.398962907714844,10.9344227734375L5.875272907714844,9.4107627734375L7.053782907714844,8.2322527734375L8.577502907714845,9.7559227734375L9.756002907714844,8.577422773437501L8.232292907714843,7.0537427734375L9.410832907714845,5.8752227734375L10.934502907714844,7.3989127734375L12.113042907714844,6.2204127734375L10.589332907714844,4.6967127734375005L12.946342907714843,2.3396927734375C13.271742907714843,2.0142593734375,13.799442907714845,2.0142593734375,14.124842907714843,2.3396927734375L17.660442907714845,5.8752227734375C17.985842907714844,6.2006727734375,17.985842907714844,6.7283027734375,17.660442907714845,7.0537427734375L7.053782907714844,17.6602927734375C6.728342907714843,17.985792773437502,6.200712907714844,17.985792773437502,5.875272907714844,17.6602927734375L2.3397339077148436,14.1247927734375C2.0143012077148437,13.7993927734375,2.0143012077148437,13.2717927734375,2.3397339077148436,12.9462927734375L4.696762907714843,10.5892627734375ZM11.767832907714844,15.3028927734375L15.303342907714844,11.7673427734375L17.499742907714843,13.9637927734375L17.499742907714843,17.4998927734375L13.964842907714845,17.4998927734375L11.767832907714844,15.3028927734375ZM4.696642907714844,8.2317227734375L2.339617907714844,5.8747027734375C2.0141845077148437,5.5492627734374995,2.0141845077148437,5.0216227734375,2.339617907714844,4.696192773437501L4.696642907714844,2.3391677734375C5.022072907714843,2.0137343734375,5.549712907714843,2.0137343734375,5.875152907714844,2.3391677734375L8.232172907714844,4.696192773437501L4.696642907714844,8.2317227734375Z" fill="#9FA7BD" fill-opacity="1"/></g></g></svg>