<?xml version="1.0" standalone="no"?><!DOCTYPE svg PUBLIC "-//W3C//DTD SVG 1.1//EN" "http://www.w3.org/Graphics/SVG/1.1/DTD/svg11.dtd"><svg t="1752721227056" class="icon" viewBox="0 0 1024 1024" version="1.1" xmlns="http://www.w3.org/2000/svg" p-id="6102" xmlns:xlink="http://www.w3.org/1999/xlink" width="200" height="200"><path d="M511.99352 1024a511.99352 511.99352 0 0 0 468.954065-717.590918 31.999595 31.999595 0 1 0-58.559259 25.759674A447.99433 447.99433 0 1 1 693.111228 102.091668a31.999595 31.999595 0 0 0 25.919672-58.559259A511.99352 511.99352 0 1 0 511.99352 1024z" fill="#211B13" p-id="6103"></path><path d="M839.349377 235.689977l42.879457-85.918913L796.309922 192.01053c-32.959583 15.999798-323.035912 162.397945-381.595171 220.957203a143.998178 143.998178 0 1 0 203.677422 204.317414c58.559259-58.559259 204.477412-348.795586 220.957204-381.59517zM516.473463 595.525423a79.998988 79.998988 0 0 1-56.639283-136.638271c30.559613-30.559613 161.597955-103.678688 277.116493-163.997924-60.319237 115.518538-133.438311 246.55688-163.997924 277.116493a79.998988 79.998988 0 0 1-56.479286 23.519702z" fill="#211B13" p-id="6104"></path><path d="M239.996963 512.00648a31.999595 31.999595 0 0 0-63.99919 0 335.995748 335.995748 0 0 0 335.995747 335.995747 31.999595 31.999595 0 0 0 0-63.99919 271.996558 271.996558 0 0 1-271.996557-271.996557z" fill="#FFB243" p-id="6105"></path></svg>