<?xml version="1.0" standalone="no"?><!DOCTYPE svg PUBLIC "-//W3C//DTD SVG 1.1//EN" "http://www.w3.org/Graphics/SVG/1.1/DTD/svg11.dtd"><svg height="1024" node-id="1" sillyvg="true" template-height="1024" template-width="1024" version="1.1" viewBox="0 0 1024 1024" width="1024" xmlns="http://www.w3.org/2000/svg" xmlns:xlink="http://www.w3.org/1999/xlink"><defs node-id="114"><clipPath id="master_svg0_24_0025" node-id="3"><path d="M 0.00 0.00 L 1024.00 0.00 L 1024.00 1024.00 L 0.00 1024.00 Z" fill="#000000" fill-rule="nonzero" node-id="117" stroke="none" target-height="1024" target-width="1024" target-x="0" target-y="0"></path></clipPath></defs><g node-id="389"><g clip-path="url(#master_svg0_24_0025)" group-id="1" id="sillyvg_g_1" node-id="123"><path d="M 960.60 611.20 L 960.60 631.90 L 774.50 740.00 L 658.10 672.60 L 658.10 652.00 L 844.00 543.80 L 960.60 611.20 Z" fill="#111d33" fill-rule="nonzero" group-id="1,2" node-id="127" stroke="none" target-height="196.20001" target-width="302.5" target-x="658.1" target-y="543.8"></path><path d="M 960.50 611.10 L 960.50 631.80 L 774.50 739.90 L 774.50 719.20 L 960.50 611.10 Z" fill="#111d33" fill-rule="nonzero" group-id="1,3" node-id="132" stroke="none" target-height="128.80005" target-width="186" target-x="774.5" target-y="611.1"></path><path d="M 774.50 719.20 L 774.50 739.90 L 658.00 672.60 L 658.10 652.00 L 774.50 719.20 Z" fill="#1d2943" fill-rule="nonzero" group-id="1,4" node-id="137" stroke="none" target-height="87.900024" target-width="116.5" target-x="658" target-y="652"></path><path d="M 960.50 611.10 L 774.50 719.20 L 658.10 652.00 L 844.10 543.90 L 960.50 611.10 Z" fill="#4c5c75" fill-rule="nonzero" group-id="1,5" node-id="142" stroke="none" target-height="175.29999" target-width="302.40002" target-x="658.1" target-y="543.9"></path><path d="M 773.90 302.40 L 768.80 571.90 L 875.60 633.90 L 880.60 364.40 L 773.90 302.40 Z" fill="#c9cee2" fill-rule="nonzero" group-id="1,6" node-id="147" stroke="none" target-height="331.50003" target-width="111.79999" target-x="768.8" target-y="302.4"></path><path d="M 837.70 353.30 L 837.60 397.70 L 836.70 403.40 L 834.20 409.40 L 832.10 412.50 L 829.30 415.90 L 825.70 419.30 L 821.30 422.80 L 816.00 426.20 L 810.80 428.90 L 805.30 431.40 L 799.60 433.50 L 787.60 436.60 L 781.50 437.70 L 775.30 438.40 L 763.30 438.70 L 751.60 437.50 L 746.20 436.40 L 741.00 434.90 L 736.20 433.00 L 731.80 430.80 L 728.40 428.60 L 725.50 426.30 L 721.40 421.50 L 719.90 418.80 L 718.80 416.10 L 718.20 413.30 L 718.00 410.40 L 718.10 366.00 L 718.30 368.90 L 718.90 371.70 L 720.00 374.40 L 721.50 377.10 L 723.40 379.50 L 725.70 381.90 L 728.50 384.20 L 731.90 386.40 L 736.30 388.60 L 741.10 390.50 L 746.40 392.00 L 751.80 393.10 L 763.40 394.30 L 775.40 394.00 L 787.70 392.20 L 799.70 389.10 L 805.50 387.00 L 810.90 384.50 L 816.10 381.80 L 821.40 378.40 L 825.80 374.90 L 829.40 371.50 L 832.20 368.10 L 834.70 364.20 L 836.40 360.50 L 837.40 356.90 L 837.70 353.30 Z" fill="#b0b8cf" fill-rule="nonzero" group-id="1,7" node-id="152" stroke="none" target-height="85.400024" target-width="119.70001" target-x="718" target-y="353.3"></path><path d="M 837.80 350.00 L 838.00 353.50 L 837.60 356.90 L 836.70 360.30 L 835.10 363.80 L 833.10 367.00 L 830.70 370.10 L 827.60 373.30 L 824.00 376.40 L 816.00 381.70 L 806.20 386.50 L 799.20 389.00 L 791.60 391.10 L 783.40 392.70 L 775.10 393.70 L 767.30 394.00 L 759.80 393.70 L 754.20 393.10 L 744.20 391.00 L 735.40 387.70 L 731.50 385.60 L 728.20 383.40 L 725.30 380.90 L 722.80 378.10 L 720.90 375.10 L 719.50 372.00 L 718.60 368.70 L 718.40 365.20 L 718.80 361.80 L 719.70 358.40 L 721.30 354.90 L 723.30 351.70 L 725.70 348.60 L 728.80 345.50 L 732.40 342.30 L 740.40 337.00 L 750.20 332.20 L 757.20 329.70 L 764.80 327.60 L 773.00 326.00 L 781.30 325.00 L 789.10 324.70 L 796.60 325.00 L 807.40 326.50 L 816.60 329.20 L 821.00 331.00 L 824.90 333.10 L 828.20 335.30 L 831.10 337.80 L 833.60 340.60 L 835.60 343.60 L 836.90 346.70 L 837.80 350.00 Z" fill="#f1f6fa" fill-rule="nonzero" group-id="1,8" node-id="157" stroke="none" target-height="69.29999" target-width="119.599976" target-x="718.4" target-y="324.7"></path><path d="M 830.60 359.30 L 829.20 362.80 L 827.20 366.30 L 824.30 369.80 L 821.10 373.10 L 817.00 376.30 L 812.10 379.50 L 806.20 382.50 L 800.00 385.10 L 793.40 387.20 L 786.70 388.80 L 779.90 389.90 L 773.00 390.50 L 766.10 390.70 L 759.60 390.30 L 753.30 389.40 L 744.40 387.00 L 736.80 383.60 L 734.10 381.90 L 731.60 379.80 L 729.20 377.40 L 727.30 374.90 L 725.90 372.40 L 725.00 369.80 L 724.50 367.10 L 724.50 364.40 L 724.80 361.70 L 725.60 358.90 L 726.90 356.00 L 728.70 353.00 L 731.30 349.80 L 734.60 346.50 L 738.70 343.20 L 743.70 339.90 L 749.60 336.90 L 755.80 334.30 L 762.40 332.20 L 769.20 330.60 L 775.90 329.50 L 782.80 328.80 L 789.70 328.70 L 796.20 329.10 L 802.50 330.00 L 811.40 332.30 L 819.00 335.80 L 822.80 338.30 L 825.80 341.00 L 828.10 343.70 L 829.70 346.50 L 830.80 349.60 L 831.40 352.80 L 831.30 356.00 L 830.60 359.30 Z" fill="#d4daea" fill-rule="nonzero" group-id="1,9" node-id="162" stroke="none" target-height="62" target-width="106.900024" target-x="724.5" target-y="328.7"></path><path d="M 830.60 359.30 L 829.20 362.80 L 827.20 366.30 L 824.30 369.80 L 821.10 373.10 L 817.00 376.30 L 812.10 379.50 L 806.20 382.50 L 800.00 385.10 L 793.40 387.20 L 786.70 388.80 L 779.90 389.90 L 773.00 390.50 L 766.10 390.70 L 759.60 390.30 L 753.30 389.40 L 744.40 387.00 L 740.40 385.40 L 734.10 381.90 L 731.60 379.80 L 732.90 376.40 L 735.00 372.90 L 737.80 369.30 L 741.10 366.10 L 745.10 362.90 L 750.00 359.80 L 755.90 356.80 L 762.10 354.20 L 768.70 352.10 L 775.40 350.50 L 782.20 349.30 L 789.10 348.70 L 795.90 348.60 L 802.50 349.00 L 808.80 349.90 L 813.40 350.90 L 821.70 353.80 L 825.30 355.70 L 830.60 359.30 Z" fill="#9ea9c9" fill-rule="nonzero" group-id="1,10" node-id="167" stroke="none" target-height="42.100006" target-width="99" target-x="731.6" target-y="348.6"></path><path d="M 937.30 331.80 L 932.20 601.10 L 768.70 695.90 L 712.20 663.20 L 717.70 393.60 L 824.30 331.60 L 773.90 302.40 L 830.60 269.70 L 937.30 331.80 Z" fill="#b0b8cf" fill-rule="nonzero" group-id="1,11" node-id="172" stroke="none" target-height="426.2" target-width="225.09998" target-x="712.2" target-y="269.7"></path><path d="M 881.00 364.20 L 774.20 426.20 L 768.80 695.90 L 932.10 601.20 L 937.20 331.70 L 881.00 364.20 Z" fill="#b0b8cf" fill-rule="nonzero" group-id="1,12" node-id="177" stroke="none" target-height="364.2" target-width="168.40002" target-x="768.8" target-y="331.7"></path><path d="M 774.20 426.20 L 768.80 695.90 L 712.30 663.20 L 717.70 393.60 L 774.20 426.20 Z" fill="#c9cee2" fill-rule="nonzero" group-id="1,13" node-id="182" stroke="none" target-height="302.30002" target-width="61.900024" target-x="712.3" target-y="393.6"></path><path d="M 830.50 269.70 L 773.90 302.40 L 824.20 331.60 L 717.70 393.60 L 774.20 426.20 L 937.20 331.70 L 830.50 269.70 Z M 170.60 709.50 L 256.10 859.60 L 457.00 984.60 L 434.70 951.40 L 413.80 921.40 L 394.20 894.50 L 375.80 870.50 L 358.50 849.20 L 342.40 830.40 L 327.30 813.90 L 313.10 799.50 L 299.90 787.00 L 224.40 691.40 L 170.60 709.50 Z" fill="#e3e7f0" fill-rule="nonzero" group-id="1,14" node-id="187" stroke="none" target-height="714.89996" target-width="766.6" target-x="170.6" target-y="269.7"></path><path d="M 722.90 859.70 L 457.00 984.60 L 369.50 899.20 L 216.30 708.30 L 436.60 584.50 L 556.60 680.70 L 722.90 859.70 Z" fill="#c9cee2" fill-rule="nonzero" group-id="1,15" node-id="192" stroke="none" target-height="400.09998" target-width="506.60004" target-x="216.3" target-y="584.5"></path><path d="M 436.60 584.50 L 522.00 734.70 L 722.90 859.70 L 700.70 826.40 L 679.80 796.50 L 660.20 769.60 L 641.80 745.60 L 624.50 724.30 L 608.40 705.50 L 593.20 688.90 L 579.10 674.50 L 565.90 662.00 L 490.40 566.40 L 436.60 584.50 Z" fill="#cccece" fill-rule="nonzero" group-id="1,16" node-id="197" stroke="none" target-height="293.3" target-width="286.30002" target-x="436.6" target-y="566.4"></path><path d="M 548.40 674.10 L 317.20 834.00 L 198.40 698.90 L 201.00 695.90 L 202.80 694.60 L 208.10 692.50 L 215.80 691.00 L 243.70 689.10 L 250.90 688.20 L 257.70 686.90 L 262.10 685.70 L 266.10 684.10 L 269.70 682.20 L 272.20 680.50 L 276.40 676.20 L 278.10 673.60 L 436.60 584.50 L 548.40 674.10 Z" fill="#b0b8cf" fill-rule="nonzero" group-id="1,17" node-id="202" stroke="none" target-height="249.5" target-width="350.00003" target-x="198.4" target-y="584.5"></path><path d="M 291.20 693.10 L 219.90 726.60 L 222.90 725.00 L 225.60 722.90 L 228.20 720.50 L 230.60 717.70 L 232.80 714.30 L 236.10 707.10 L 237.40 702.80 L 239.10 692.60 L 310.40 659.10 L 308.70 669.30 L 307.40 673.50 L 304.10 680.80 L 301.90 684.10 L 299.60 687.00 L 297.00 689.40 L 294.20 691.50 L 291.20 693.10 Z" fill="#ffffff" fill-rule="nonzero" group-id="1,18" node-id="207" stroke="none" target-height="67.5" target-width="90.5" target-x="219.9" target-y="659.1"></path><path d="M 134.40 619.30 L 205.70 585.80 L 310.40 659.10 L 239.10 692.60 L 134.40 619.30 Z" fill="#eaefef" fill-rule="nonzero" group-id="1,19" node-id="212" stroke="none" target-height="106.79999" target-width="176" target-x="134.4" target-y="585.8"></path><path d="M 239.10 692.60 L 237.30 702.80 L 236.10 707.10 L 232.70 714.40 L 230.50 717.80 L 228.10 720.60 L 225.50 723.10 L 222.70 725.10 L 219.70 726.70 L 216.50 727.90 L 213.20 728.70 L 209.60 729.10 L 205.80 729.10 L 201.80 728.60 L 194.10 726.40 L 189.90 724.60 L 181.00 719.30 L 175.40 715.00 L 170.00 710.10 L 164.70 704.50 L 159.90 698.60 L 155.40 692.20 L 151.20 685.50 L 147.40 678.40 L 144.00 671.20 L 141.10 663.80 L 138.60 656.20 L 136.60 648.70 L 135.20 641.20 L 134.30 633.70 L 134.00 626.40 L 134.40 619.30 L 239.10 692.60 Z" fill="#e3e7f0" fill-rule="nonzero" group-id="1,20" node-id="217" stroke="none" target-height="109.79999" target-width="105.100006" target-x="134" target-y="619.3"></path><path d="M 645.80 652.20 L 396.10 769.50 L 148.00 595.90 L 89.00 323.90 L 86.70 317.30 L 85.00 314.10 L 83.00 311.10 L 80.60 308.40 L 78.10 306.30 L 74.50 304.30 L 71.10 303.70 L 68.30 304.40 L 318.00 187.00 L 319.70 186.50 L 323.00 186.60 L 325.40 187.50 L 327.70 188.80 L 330.10 190.80 L 332.40 193.30 L 334.40 196.20 L 336.20 199.50 L 337.70 202.90 L 338.70 206.60 L 397.80 478.50 L 645.80 652.20 Z" fill="#e9e8e6" fill-rule="nonzero" group-id="1,21" node-id="222" stroke="none" target-height="583" target-width="577.5" target-x="68.3" target-y="186.5"></path><path d="M 652.60 685.40 L 402.90 802.70 L 405.10 801.00 L 406.10 799.70 L 407.00 797.40 L 407.60 794.30 L 407.30 788.30 L 405.50 782.00 L 402.40 776.20 L 400.40 773.60 L 396.10 769.50 L 645.80 652.20 L 650.20 656.30 L 652.20 658.90 L 655.20 664.70 L 657.10 671.00 L 657.40 677.00 L 656.80 680.00 L 655.80 682.30 L 654.90 683.70 L 652.60 685.40 Z" fill="#eaefef" fill-rule="nonzero" group-id="1,22" node-id="227" stroke="none" target-height="150.5" target-width="261.30002" target-x="396.1" target-y="652.2"></path><path d="M 89.00 323.90 L 148.00 595.90 L 396.10 769.50 L 400.40 773.60 L 402.40 776.20 L 404.10 779.10 L 406.60 785.10 L 407.30 788.30 L 407.60 794.30 L 407.10 797.10 L 406.30 799.30 L 405.10 801.00 L 403.60 802.30 L 401.90 803.10 L 400.00 803.40 L 397.90 803.10 L 395.70 802.40 L 393.20 800.90 L 136.80 621.30 L 134.30 619.30 L 132.00 616.70 L 129.90 613.80 L 128.10 610.60 L 126.70 607.20 L 125.70 603.60 L 64.10 319.90 L 63.50 316.50 L 63.80 311.10 L 64.50 308.60 L 65.50 306.80 L 66.80 305.30 L 68.40 304.30 L 70.30 303.80 L 72.60 303.90 L 74.50 304.30 L 78.20 306.30 L 80.70 308.50 L 83.00 311.10 L 86.70 317.30 L 89.00 323.90 Z" fill="#e3e7f0" fill-rule="nonzero" group-id="1,23" node-id="232" stroke="none" target-height="499.60004" target-width="344.1" target-x="63.5" target-y="303.8"></path><path d="M 571.30 458.40 L 561.40 568.90 L 560.90 571.50 L 560.10 573.50 L 558.80 575.10 L 557.30 576.10 L 547.00 580.90 L 548.50 579.90 L 549.70 578.30 L 550.50 576.40 L 551.00 573.80 L 560.90 463.20 L 571.30 458.40 Z" fill="#c9cee2" fill-rule="nonzero" group-id="1,24" node-id="237" stroke="none" target-height="122.50003" target-width="24.299988" target-x="547" target-y="458.4"></path><path d="M 538.70 447.70 L 549.10 442.80 L 571.30 458.40 L 560.90 463.20 L 538.70 447.70 Z" fill="#eaefef" fill-rule="nonzero" group-id="1,25" node-id="242" stroke="none" target-height="20.400024" target-width="32.599976" target-x="538.7" target-y="442.8"></path><path d="M 560.90 463.20 L 551.00 573.80 L 550.60 576.20 L 549.90 578.00 L 548.90 579.50 L 547.60 580.60 L 546.20 581.20 L 544.50 581.50 L 542.80 581.30 L 540.90 580.60 L 538.70 579.40 L 535.00 575.90 L 533.30 573.70 L 531.20 570.00 L 529.70 566.00 L 528.80 560.70 L 538.70 447.70 L 560.90 463.20 Z" fill="#e3e7f0" fill-rule="nonzero" group-id="1,26" node-id="247" stroke="none" target-height="133.79999" target-width="32.100037" target-x="528.8" target-y="447.7"></path><path d="M 606.30 525.90 L 604.70 527.10 L 606.30 525.90 Z" fill="#df3260" fill-rule="nonzero" group-id="1,27" node-id="252" stroke="none" target-height="1.1999512" target-width="1.5999756" target-x="604.7" target-y="525.9"></path><path d="M 622.20 517.10 L 621.50 518.50 L 619.50 520.20 L 605.50 526.70 L 606.30 525.90 L 604.70 527.10 L 603.20 527.60 L 601.40 527.50 L 599.70 527.00 L 597.80 525.90 L 579.00 507.30 L 570.90 499.90 L 562.60 492.80 L 546.00 480.20 L 535.60 473.40 L 525.20 467.20 L 514.90 461.80 L 504.50 457.00 L 491.70 451.70 L 488.00 447.90 L 485.10 442.80 L 484.10 440.00 L 483.60 437.10 L 483.80 432.60 L 484.40 430.90 L 485.30 429.40 L 486.50 428.40 L 487.90 427.90 L 487.00 428.10 L 501.70 421.20 L 504.60 420.80 L 515.50 424.80 L 525.00 429.10 L 534.70 433.80 L 544.00 439.00 L 553.50 444.80 L 563.00 451.10 L 572.00 457.70 L 581.10 464.90 L 590.30 472.70 L 599.20 480.80 L 608.10 489.50 L 617.10 498.90 L 619.30 501.60 L 620.90 504.70 L 622.10 508.00 L 622.90 513.40 L 622.20 517.10 Z" fill="#df3260" fill-rule="nonzero" group-id="1,28" node-id="257" stroke="none" target-height="106.79999" target-width="139.30002" target-x="483.6" target-y="420.8"></path><path d="M 606.30 525.90 L 604.70 527.10 L 606.30 525.90 Z" fill="#df3260" fill-rule="nonzero" group-id="1,29" node-id="262" stroke="none" target-height="1.1999512" target-width="1.5999756" target-x="604.7" target-y="525.9"></path><path d="M 622.20 517.00 L 621.50 518.30 L 619.40 520.20 L 604.70 527.20 L 606.80 525.30 L 607.90 522.30 L 608.10 520.40 L 607.30 515.00 L 606.10 511.70 L 604.40 508.60 L 602.30 505.80 L 592.20 495.40 L 581.80 485.40 L 571.00 475.80 L 559.70 466.70 L 548.10 458.10 L 539.20 452.10 L 530.10 446.40 L 520.70 441.20 L 511.10 436.40 L 501.30 432.10 L 491.30 428.10 L 489.80 427.70 L 486.90 428.10 L 501.70 421.20 L 504.60 420.80 L 515.40 424.80 L 524.80 428.90 L 534.20 433.60 L 543.70 438.90 L 553.30 444.70 L 562.90 451.10 L 571.80 457.60 L 580.70 464.60 L 589.70 472.30 L 598.80 480.50 L 607.90 489.40 L 617.00 498.90 L 619.20 501.60 L 620.90 504.70 L 622.10 508.00 L 622.80 513.40 L 622.20 517.00 Z" fill="#e93565" fill-rule="nonzero" group-id="1,30" node-id="267" stroke="none" target-height="106.400024" target-width="135.9" target-x="486.9" target-y="420.8"></path><path d="M 548.10 458.10 L 557.00 464.60 L 565.90 471.60 L 574.90 479.20 L 584.00 487.40 L 593.10 496.30 L 602.20 505.80 L 604.40 508.60 L 606.10 511.70 L 607.30 515.00 L 608.00 518.20 L 608.10 520.40 L 607.40 524.00 L 606.30 525.80 L 605.10 526.90 L 603.50 527.50 L 601.80 527.60 L 600.00 527.10 L 597.80 525.90 L 576.80 505.10 L 566.90 496.40 L 556.70 488.10 L 546.10 480.30 L 537.90 474.80 L 529.60 469.60 L 521.00 464.90 L 512.20 460.50 L 492.90 452.30 L 489.80 450.00 L 488.00 447.90 L 485.10 442.80 L 484.10 440.00 L 483.50 434.90 L 483.70 433.00 L 484.90 429.90 L 486.90 428.10 L 489.60 427.70 L 491.30 428.10 L 500.60 431.70 L 510.00 435.90 L 519.40 440.60 L 528.90 445.80 L 538.50 451.60 L 548.10 458.10 Z" fill="#df3260" fill-rule="nonzero" group-id="1,31" node-id="272" stroke="none" target-height="99.89996" target-width="124.599976" target-x="483.5" target-y="427.7"></path><path d="M 410.50 462.50 L 160.20 580.20 L 158.50 580.60 L 154.70 580.00 L 151.20 578.10 L 148.80 576.10 L 146.50 573.70 L 144.40 570.70 L 142.60 567.50 L 141.20 564.10 L 140.20 560.40 L 99.40 373.70 L 98.70 367.70 L 99.60 363.00 L 100.50 361.10 L 101.60 359.60 L 103.10 358.50 L 104.70 357.80 L 106.70 357.60 L 103.50 358.10 L 353.20 240.80 L 354.90 240.20 L 356.60 240.10 L 360.10 241.00 L 363.10 242.70 L 365.40 244.70 L 367.70 247.20 L 371.60 253.20 L 373.00 256.70 L 374.10 260.30 L 414.70 447.20 L 415.30 450.90 L 415.30 454.10 L 414.70 457.10 L 413.80 459.40 L 412.80 460.80 L 410.50 462.50 Z" fill="#e93565" fill-rule="nonzero" group-id="1,32" node-id="277" stroke="none" target-height="340.49997" target-width="316.59998" target-x="98.7" target-y="240.1"></path><path d="M 410.60 462.50 L 160.70 579.90 L 163.30 577.80 L 165.10 574.30 L 165.60 571.60 L 165.60 568.40 L 165.00 564.50 L 124.20 377.60 L 122.40 372.00 L 121.00 369.10 L 119.30 366.40 L 115.40 361.70 L 113.00 359.80 L 110.50 358.40 L 107.80 357.60 L 105.60 357.50 L 103.50 358.10 L 353.20 240.70 L 354.90 240.20 L 358.30 240.40 L 360.70 241.30 L 363.00 242.70 L 365.40 244.60 L 367.70 247.10 L 369.80 250.00 L 371.60 253.20 L 373.00 256.70 L 374.00 260.30 L 414.70 447.10 L 415.30 451.00 L 415.30 454.20 L 414.80 457.00 L 413.10 460.50 L 410.60 462.50 Z" fill="#f45170" fill-rule="nonzero" group-id="1,33" node-id="282" stroke="none" target-height="339.7" target-width="311.8" target-x="103.5" target-y="240.2"></path><path d="M 124.20 377.60 L 165.00 564.40 L 165.50 567.80 L 165.40 573.00 L 164.70 575.40 L 163.80 577.20 L 162.60 578.70 L 161.20 579.70 L 159.50 580.40 L 157.60 580.60 L 155.70 580.30 L 153.60 579.50 L 151.20 578.10 L 148.80 576.20 L 146.40 573.60 L 144.40 570.80 L 142.60 567.50 L 141.20 564.10 L 140.10 560.40 L 99.30 373.70 L 98.80 370.30 L 99.00 364.80 L 99.70 362.40 L 100.80 360.50 L 102.10 359.10 L 103.70 358.00 L 105.60 357.50 L 107.80 357.60 L 109.70 358.10 L 113.40 360.00 L 115.90 362.20 L 118.20 364.80 L 121.90 371.00 L 124.20 377.60 Z M 357.20 218.30 L 106.00 336.10 L 104.40 336.40 L 102.70 336.20 L 100.20 335.30 L 97.80 333.90 L 95.40 331.90 L 93.00 329.40 L 91.00 326.50 L 89.20 323.20 L 87.80 319.80 L 78.50 278.80 L 78.00 275.00 L 78.00 271.70 L 78.60 268.90 L 79.30 266.90 L 80.30 265.40 L 82.90 263.20 L 334.20 145.50 L 337.50 145.60 L 339.90 146.50 L 342.20 147.80 L 344.60 149.70 L 346.90 152.30 L 349.00 155.10 L 350.80 158.40 L 352.20 161.90 L 361.50 202.80 L 362.00 206.70 L 362.00 209.90 L 361.50 212.70 L 360.70 214.70 L 359.80 216.20 L 357.20 218.30 Z" fill="#e93565" fill-rule="nonzero" group-id="1,34" node-id="287" stroke="none" target-height="435.09998" target-width="284" target-x="78" target-y="145.5"></path><path d="M 357.20 218.30 L 107.40 335.70 L 110.00 333.60 L 110.90 332.00 L 111.70 330.10 L 112.20 327.30 L 112.20 324.00 L 111.70 320.10 L 103.50 282.80 L 102.50 279.20 L 101.00 275.70 L 99.20 272.50 L 97.20 269.60 L 94.90 267.10 L 92.50 265.10 L 89.00 263.30 L 87.10 262.80 L 85.60 262.70 L 82.80 263.30 L 332.60 146.00 L 334.20 145.50 L 337.50 145.60 L 340.00 146.40 L 342.20 147.80 L 344.60 149.70 L 346.90 152.30 L 349.00 155.10 L 350.80 158.40 L 352.20 161.80 L 353.30 165.50 L 361.40 202.80 L 362.00 206.70 L 362.00 210.00 L 361.40 212.70 L 360.70 214.70 L 359.70 216.30 L 357.20 218.30 Z" fill="#f45170" fill-rule="nonzero" group-id="1,35" node-id="292" stroke="none" target-height="190.20001" target-width="279.2" target-x="82.8" target-y="145.5"></path><path d="M 92.50 265.10 L 94.90 267.10 L 97.20 269.60 L 99.20 272.50 L 101.00 275.70 L 102.50 279.20 L 103.50 282.80 L 112.20 323.50 L 112.30 326.30 L 111.40 331.10 L 110.40 332.90 L 109.30 334.40 L 107.80 335.50 L 106.20 336.10 L 104.30 336.30 L 102.40 336.00 L 100.20 335.30 L 97.80 333.90 L 95.40 331.90 L 93.10 329.40 L 91.00 326.50 L 89.20 323.30 L 87.80 319.80 L 86.80 316.20 L 78.10 275.50 L 78.30 270.00 L 79.00 267.60 L 80.10 265.70 L 81.40 264.20 L 83.00 263.20 L 84.90 262.70 L 87.10 262.80 L 90.60 264.00 L 92.50 265.10 Z M 784.90 835.30 L 782.70 836.90 L 534.00 953.60 L 536.20 951.30 L 537.10 949.20 L 537.70 946.70 L 537.90 943.50 L 537.60 940.10 L 536.60 936.10 L 537.70 941.90 L 537.80 944.90 L 537.50 947.80 L 536.10 951.20 L 533.50 953.90 L 531.70 954.70 L 529.80 954.80 L 527.80 954.50 L 525.70 953.80 L 523.40 952.50 L 521.10 950.60 L 516.70 945.40 L 408.00 776.20 L 185.70 620.40 L 181.60 615.60 L 178.50 609.80 L 177.40 606.70 L 176.70 603.50 L 176.40 597.40 L 176.80 595.10 L 178.20 591.70 L 180.50 589.40 L 181.90 588.70 L 184.10 588.30 L 182.50 588.50 L 430.80 471.80 L 433.70 471.10 L 436.90 471.70 L 440.50 473.50 L 664.20 630.10 L 667.70 633.20 L 670.90 637.40 L 782.50 810.90 L 785.60 817.00 L 787.30 823.30 L 787.50 828.90 L 787.00 831.50 L 786.10 833.60 L 784.90 835.30 Z" fill="#e93565" fill-rule="nonzero" group-id="1,36" node-id="297" stroke="none" target-height="692.1" target-width="709.4" target-x="78.1" target-y="262.7"></path><path d="M 664.20 630.10 L 414.40 747.40 L 190.80 590.90 L 188.90 589.70 L 185.60 588.60 L 184.00 588.40 L 181.10 589.10 L 430.90 471.70 L 433.70 471.10 L 435.40 471.20 L 438.70 472.40 L 440.60 473.50 L 664.20 630.10 Z" fill="#f45170" fill-rule="nonzero" group-id="1,37" node-id="302" stroke="none" target-height="276.30002" target-width="483.1" target-x="181.1" target-y="471.1"></path><path d="M 784.80 835.30 L 782.70 836.90 L 534.10 953.60 L 535.10 952.70 L 536.40 950.90 L 537.30 948.80 L 537.80 946.10 L 537.90 943.40 L 536.90 937.30 L 535.90 934.30 L 532.80 928.20 L 421.10 754.50 L 419.00 751.70 L 414.40 747.40 L 664.20 630.20 L 667.60 633.20 L 670.80 637.30 L 782.50 810.80 L 785.60 816.90 L 787.30 823.20 L 787.40 828.80 L 786.90 831.50 L 786.00 833.60 L 784.80 835.30 Z" fill="#df3260" fill-rule="nonzero" group-id="1,38" node-id="307" stroke="none" target-height="323.39996" target-width="373.00003" target-x="414.4" target-y="630.2"></path><path d="M 414.40 747.40 L 417.90 750.50 L 421.00 754.60 L 534.50 931.20 L 535.90 934.20 L 537.60 940.50 L 537.70 946.20 L 537.20 948.80 L 536.30 950.90 L 535.10 952.70 L 533.50 953.90 L 531.70 954.70 L 529.80 954.80 L 527.80 954.50 L 525.60 953.70 L 523.30 952.40 L 520.80 950.30 L 518.60 947.90 L 516.70 945.30 L 407.90 776.30 L 188.00 622.30 L 183.60 618.20 L 179.90 612.70 L 177.50 606.60 L 176.40 600.40 L 176.40 597.50 L 176.90 594.60 L 177.80 592.40 L 178.90 590.80 L 180.40 589.50 L 182.10 588.70 L 184.10 588.40 L 186.10 588.60 L 188.30 589.40 L 190.80 590.80 L 414.40 747.40 Z" fill="#e93565" fill-rule="nonzero" group-id="1,39" node-id="312" stroke="none" target-height="366.39996" target-width="361.30002" target-x="176.4" target-y="588.4"></path><path d="M 299.10 560.30 L 309.40 555.40 L 331.60 570.90 L 321.30 575.80 L 299.10 560.30 Z" fill="#eaefef" fill-rule="nonzero" group-id="1,40" node-id="317" stroke="none" target-height="20.399963" target-width="32.5" target-x="299.1" target-y="555.4"></path><path d="M 331.60 571.00 L 321.70 681.50 L 321.20 684.10 L 320.30 686.10 L 319.10 687.60 L 317.60 688.60 L 307.40 693.50 L 305.60 694.00 L 303.60 693.90 L 301.50 693.30 L 299.10 691.90 L 295.30 688.50 L 293.60 686.20 L 291.60 682.60 L 290.10 678.60 L 289.20 673.30 L 299.10 560.40 L 321.30 575.70 L 331.60 571.00 Z" fill="#c9cee2" fill-rule="nonzero" group-id="1,41" node-id="322" stroke="none" target-height="133.59998" target-width="42.399994" target-x="289.2" target-y="560.4"></path><path d="M 331.60 571.00 L 321.70 681.50 L 321.20 684.10 L 320.40 686.10 L 319.20 687.60 L 317.70 688.70 L 307.30 693.50 L 308.80 692.50 L 310.00 690.90 L 310.90 689.00 L 311.40 686.30 L 321.30 575.80 L 331.60 571.00 Z" fill="#c9cee2" fill-rule="nonzero" group-id="1,42" node-id="327" stroke="none" target-height="122.5" target-width="24.300018" target-x="307.3" target-y="571"></path><path d="M 321.30 575.80 L 311.40 686.30 L 310.90 688.80 L 310.20 690.60 L 309.20 692.10 L 307.90 693.20 L 306.50 693.80 L 304.80 694.10 L 303.10 693.90 L 301.20 693.20 L 299.00 692.00 L 295.30 688.50 L 293.60 686.20 L 291.60 682.60 L 290.10 678.60 L 289.10 673.30 L 299.10 560.30 L 321.30 575.80 Z" fill="#e3e7f0" fill-rule="nonzero" group-id="1,43" node-id="332" stroke="none" target-height="133.79999" target-width="32.19998" target-x="289.1" target-y="560.3"></path><path d="M 382.60 629.70 L 381.90 631.00 L 379.80 632.90 L 364.00 640.10 L 362.20 640.20 L 360.30 639.70 L 358.20 638.60 L 339.30 619.80 L 331.20 612.40 L 322.90 605.30 L 314.60 598.80 L 306.40 592.90 L 297.70 587.00 L 289.00 581.70 L 280.40 576.90 L 271.70 572.60 L 263.10 568.80 L 254.40 565.50 L 252.00 564.10 L 250.10 562.50 L 248.30 560.40 L 245.40 555.40 L 244.50 552.60 L 243.90 549.80 L 244.00 545.40 L 245.20 542.40 L 246.10 541.40 L 262.10 533.80 L 264.80 533.40 L 275.70 537.40 L 285.10 541.50 L 294.50 546.20 L 303.90 551.40 L 313.50 557.30 L 323.10 563.70 L 332.10 570.20 L 341.10 577.20 L 350.10 584.80 L 359.20 593.10 L 368.30 601.90 L 377.50 611.40 L 379.60 614.20 L 381.30 617.30 L 382.50 620.60 L 383.10 623.80 L 383.20 626.00 L 382.60 629.70 Z" fill="#df3260" fill-rule="nonzero" group-id="1,44" node-id="337" stroke="none" target-height="106.79999" target-width="139.30002" target-x="243.9" target-y="533.4"></path><path d="M 382.50 629.60 L 381.90 630.90 L 379.70 632.80 L 365.00 639.70 L 367.10 637.90 L 368.20 634.90 L 368.40 632.90 L 367.60 627.60 L 366.40 624.30 L 364.70 621.20 L 362.60 618.40 L 352.50 608.00 L 342.10 598.00 L 331.30 588.40 L 320.00 579.30 L 308.40 570.70 L 299.50 564.60 L 290.40 559.00 L 281.00 553.80 L 271.40 549.00 L 261.60 544.60 L 251.60 540.70 L 250.20 540.30 L 247.20 540.70 L 262.00 533.80 L 264.90 533.40 L 275.70 537.40 L 285.10 541.50 L 294.50 546.20 L 304.00 551.50 L 313.60 557.30 L 323.20 563.70 L 334.80 572.40 L 346.10 581.50 L 356.90 591.00 L 367.30 601.00 L 377.40 611.50 L 379.50 614.20 L 381.20 617.30 L 382.40 620.60 L 383.20 626.00 L 382.50 629.60 Z" fill="#e93565" fill-rule="nonzero" group-id="1,45" node-id="342" stroke="none" target-height="106.29999" target-width="136.00002" target-x="247.2" target-y="533.4"></path><path d="M 308.40 570.70 L 317.30 577.20 L 326.20 584.20 L 335.20 591.80 L 344.30 600.00 L 353.40 608.90 L 362.60 618.40 L 364.70 621.20 L 366.40 624.30 L 367.60 627.60 L 368.30 630.80 L 368.20 634.80 L 367.70 636.60 L 366.60 638.40 L 365.40 639.50 L 363.80 640.10 L 362.10 640.20 L 360.30 639.70 L 356.90 637.50 L 346.60 626.80 L 337.10 617.70 L 327.20 609.00 L 317.00 600.70 L 306.40 592.90 L 298.30 587.40 L 289.90 582.20 L 281.30 577.50 L 272.60 573.10 L 263.60 569.10 L 254.50 565.50 L 252.00 564.20 L 250.10 562.60 L 246.70 558.10 L 244.50 552.60 L 243.80 547.50 L 244.50 544.00 L 246.10 541.50 L 248.50 540.30 L 251.60 540.70 L 261.00 544.30 L 270.30 548.50 L 279.80 553.20 L 289.20 558.40 L 298.80 564.20 L 308.40 570.70 Z" fill="#df3260" fill-rule="nonzero" group-id="1,46" node-id="347" stroke="none" target-height="99.900024" target-width="124.499985" target-x="243.8" target-y="540.3"></path><path d="M 743.30 184.70 L 743.30 312.90 L 742.50 317.40 L 740.30 321.50 L 738.70 323.30 L 737.00 324.50 L 606.80 399.30 L 605.40 399.50 L 604.10 399.20 L 602.90 398.50 L 603.10 398.90 L 584.40 388.10 L 583.00 386.40 L 582.60 385.30 L 582.30 255.40 L 582.50 253.20 L 583.20 251.00 L 585.60 246.80 L 587.20 245.00 L 589.00 243.70 L 718.90 168.90 L 721.30 168.70 L 722.30 169.10 L 741.20 180.10 L 742.70 181.70 L 743.30 184.70 Z" fill="#bf7d5a" fill-rule="nonzero" group-id="1,47" node-id="352" stroke="none" target-height="230.8" target-width="161" target-x="582.3" target-y="168.7"></path><path d="M 722.20 169.10 L 720.90 168.70 L 719.40 168.80 L 717.50 169.50 L 588.90 243.80 L 587.00 245.20 L 584.10 248.80 L 582.50 253.10 L 582.20 255.40 L 582.50 383.70 L 582.80 385.80 L 583.40 387.20 L 584.40 388.10 L 603.60 399.20 L 602.60 398.30 L 601.90 396.90 L 601.60 394.80 L 601.30 266.50 L 601.60 264.20 L 603.30 259.90 L 606.20 256.30 L 608.10 254.90 L 736.60 180.70 L 738.50 179.90 L 740.10 179.80 L 741.30 180.20 L 722.20 169.10 Z" fill="#dba660" fill-rule="nonzero" group-id="1,48" node-id="357" stroke="none" target-height="230.50002" target-width="159.09998" target-x="582.2" target-y="168.7"></path><path d="M 743.40 184.70 L 743.40 312.80 L 742.50 317.30 L 740.30 321.50 L 738.70 323.20 L 737.00 324.50 L 608.40 398.50 L 606.60 399.40 L 605.10 399.60 L 603.70 399.10 L 602.60 398.20 L 601.90 396.80 L 601.60 394.90 L 601.20 266.40 L 601.50 264.30 L 603.30 260.00 L 606.30 256.10 L 608.00 254.70 L 736.60 180.60 L 738.50 179.90 L 740.00 179.80 L 741.40 180.20 L 742.40 181.10 L 743.10 182.50 L 743.40 184.70 Z" fill="#bf7d5a" fill-rule="nonzero" group-id="1,49" node-id="362" stroke="none" target-height="219.8" target-width="142.20001" target-x="601.2" target-y="179.8"></path><path d="M 605.20 266.30 L 605.40 265.00 L 606.80 261.90 L 609.00 259.10 L 610.20 258.10 L 738.60 184.10 L 739.40 312.80 L 739.20 314.30 L 738.10 317.50 L 736.10 320.10 L 735.10 320.90 L 605.80 395.40 L 605.20 266.30 Z" fill="#ffffff" fill-rule="nonzero" group-id="1,50" node-id="367" stroke="none" target-height="211.29999" target-width="134.20001" target-x="605.2" target-y="184.1"></path><path d="M 671.70 243.90 L 686.60 231.00 L 692.90 227.90 L 696.80 226.50 L 700.80 225.40 L 704.90 224.90 L 710.20 225.10 L 712.50 225.80 L 714.70 226.80 L 716.50 228.40 L 718.10 230.50 L 719.10 232.90 L 719.70 235.30 L 719.70 237.70 L 719.20 241.40 L 717.90 245.10 L 716.30 248.80 L 711.00 259.30 L 709.80 262.60 L 709.40 265.60 L 710.70 283.90 L 711.20 297.20 L 711.00 304.30 L 710.30 311.40 L 708.50 320.60 L 707.20 324.90 L 705.40 329.10 L 703.30 332.90 L 700.80 336.40 L 698.80 327.60 L 696.50 321.00 L 694.20 316.10 L 691.80 312.70 L 689.40 310.40 L 686.90 308.90 L 684.30 308.30 L 679.40 308.40 L 673.50 310.10 L 670.30 311.70 L 667.00 313.90 L 663.90 316.40 L 660.70 319.80 L 657.50 323.90 L 654.60 328.40 L 651.90 333.80 L 649.20 340.40 L 647.10 347.20 L 645.20 355.10 L 643.50 364.50 L 640.40 359.90 L 637.80 354.80 L 635.80 349.30 L 634.40 343.20 L 633.60 336.50 L 633.50 329.10 L 634.60 308.20 L 634.50 305.40 L 634.00 303.40 L 633.00 301.70 L 629.70 298.10 L 627.90 295.00 L 626.40 291.40 L 625.30 286.90 L 624.90 283.80 L 625.20 277.10 L 626.00 273.70 L 627.30 270.40 L 629.30 267.00 L 631.10 264.70 L 636.00 260.20 L 639.30 258.00 L 649.40 252.30 L 657.30 248.40 L 663.50 245.90 L 668.20 244.40 L 671.70 243.90 Z" fill="#e3e7f0" fill-rule="nonzero" group-id="1,51" node-id="372" stroke="none" target-height="139.6" target-width="94.79999" target-x="624.9" target-y="224.9"></path><path d="M 702.20 325.70 L 701.70 318.60 L 700.80 313.00 L 699.50 308.70 L 698.00 305.40 L 696.20 302.90 L 694.10 301.10 L 691.90 299.90 L 689.30 299.20 L 686.30 299.10 L 683.20 299.40 L 676.00 301.50 L 668.50 305.20 L 664.60 307.70 L 660.90 310.70 L 657.50 314.00 L 654.20 317.90 L 651.40 322.00 L 649.00 326.60 L 647.00 331.70 L 645.90 335.60 L 645.10 339.80 L 644.80 344.30 L 644.80 349.10 L 642.60 344.70 L 641.20 340.00 L 640.40 335.20 L 640.40 330.10 L 641.20 324.70 L 642.80 318.90 L 645.40 312.60 L 649.10 305.80 L 647.60 302.20 L 645.60 299.20 L 643.30 296.90 L 639.50 294.40 L 638.90 293.40 L 638.70 292.30 L 639.00 290.50 L 640.00 288.30 L 641.50 286.20 L 645.20 282.50 L 647.00 281.20 L 648.80 280.50 L 650.00 280.50 L 659.40 282.70 L 665.70 283.30 L 668.90 283.20 L 672.00 282.60 L 673.80 281.90 L 677.40 279.60 L 681.90 274.60 L 685.40 269.20 L 688.50 262.20 L 690.50 259.00 L 691.80 258.00 L 693.30 257.20 L 695.50 256.70 L 697.80 256.60 L 699.40 256.90 L 700.50 257.70 L 701.10 258.40 L 701.40 260.90 L 696.80 275.30 L 696.30 280.40 L 696.70 282.60 L 700.50 291.10 L 703.90 300.20 L 705.10 305.30 L 705.80 312.20 L 705.60 315.70 L 705.00 319.10 L 703.90 322.40 L 702.20 325.70 Z" fill="#4c5c75" fill-rule="nonzero" group-id="1,52" node-id="377" stroke="none" target-height="92.5" target-width="67.099976" target-x="638.7" target-y="256.6"></path><path d="M 709.00 249.70 L 708.20 253.50 L 707.50 260.40 L 706.60 275.40 L 706.10 276.80 L 705.70 277.10 L 705.10 276.70 L 704.10 275.00 L 703.40 272.80 L 702.90 266.20 L 703.10 250.10 L 702.60 249.10 L 701.80 248.40 L 700.50 248.00 L 698.20 248.00 L 691.60 249.70 L 673.60 257.40 L 667.90 258.90 L 662.10 259.70 L 656.20 259.70 L 664.40 253.60 L 672.90 247.90 L 681.60 242.60 L 690.50 237.60 L 699.70 233.10 L 709.00 228.90 L 710.20 228.80 L 711.00 229.20 L 711.60 229.90 L 712.10 231.60 L 712.30 234.00 L 711.50 239.60 L 709.00 249.70 Z" fill="#ffffff" fill-rule="nonzero" group-id="1,53" node-id="382" stroke="none" target-height="48.300003" target-width="56.099976" target-x="656.2" target-y="228.8"></path><path d="M 880.00 336.10 L 878.30 335.80 L 876.80 335.20 L 875.60 334.20 L 874.60 333.00 L 874.00 331.50 L 873.80 329.80 L 874.70 56.40 L 660.00 181.20 L 660.00 213.90 L 659.70 215.50 L 659.00 216.80 L 656.80 218.90 L 653.80 219.60 L 652.20 219.40 L 649.60 218.00 L 648.00 215.50 L 647.60 213.90 L 647.60 177.60 L 647.80 176.00 L 648.40 174.50 L 649.40 173.20 L 650.70 172.20 L 877.80 40.30 L 880.70 39.40 L 883.50 39.90 L 885.70 41.60 L 886.50 42.70 L 887.20 45.60 L 886.20 329.90 L 885.90 331.60 L 885.30 333.00 L 884.40 334.30 L 883.10 335.20 L 881.70 335.90 L 880.00 336.10 Z" fill="#b0b8cf" fill-rule="nonzero" group-id="1,54" node-id="387" stroke="none" target-height="296.7" target-width="239.60004" target-x="647.6" target-y="39.4"></path></g></g></svg>