<?xml version="1.0" standalone="no"?><!DOCTYPE svg PUBLIC "-//W3C//DTD SVG 1.1//EN" "http://www.w3.org/Graphics/SVG/1.1/DTD/svg11.dtd"><svg height="1024" node-id="1" sillyvg="true" template-height="1024" template-width="1024" version="1.1" viewBox="0 0 1024 1024" width="1024" xmlns="http://www.w3.org/2000/svg" xmlns:xlink="http://www.w3.org/1999/xlink"><defs node-id="64"><linearGradient gradientUnits="objectBoundingBox" id="linearGradient-3" node-id="12" spreadMethod="pad" x1="0.5" x2="0.5" y1="-0.18257874" y2="0.8210744"><stop offset="0" stop-color="#11aadc" stop-opacity="0.7"></stop><stop offset="1" stop-color="#11aadc" stop-opacity="0"></stop></linearGradient><radialGradient cx="0.15520318" cy="0.12887964" fx="0.15520318" fy="0.12887964" gradientUnits="objectBoundingBox" id="radialGradient-5" node-id="17" r="1.4218402" rev="4" spreadMethod="pad"><stop offset="0" stop-color="#31bcad" stop-opacity="0.3"></stop><stop offset="1" stop-color="#00a4dc" stop-opacity="0.9681934"></stop></radialGradient><radialGradient cx="1" cy="0.051869437" fx="1" fy="0.051869437" gradientUnits="objectBoundingBox" id="radialGradient-8" node-id="25" r="1.133648" rev="3" spreadMethod="pad"><stop offset="0" stop-color="#8fd9dc"></stop><stop offset="1" stop-color="#4ec2d9"></stop></radialGradient><radialGradient cx="0.15520318" cy="0.12887964" fx="0.15520318" fy="0.12887964" gradientUnits="objectBoundingBox" id="radialGradient1" node-id="84" r="1.1189889" rev="2" spreadMethod="pad"><stop offset="0" stop-color="#4ec2d9"></stop><stop offset="1" stop-color="#8fd9dc"></stop></radialGradient><radialGradient cx="0.84479684" cy="0.12887964" fx="0.84479684" fy="0.12887964" gradientUnits="objectBoundingBox" id="radialGradient-9" node-id="28" r="1.1189889" rev="1" spreadMethod="pad"><stop offset="0" stop-color="#4ec2d9"></stop><stop offset="1" stop-color="#8fd9dc"></stop></radialGradient><filter filterUnits="objectBoundingBox" height="1337.856" id="filter-2" node-id="6" width="1337.856" x="-157.29776" y="-128.79643"><feMorphology color-interpolation-filters="linearRGB" in="SourceAlpha" operator="dilate" radius="14.222222 14.222222" result="shadowSpreadOuter1"></feMorphology><feOffset color-interpolation-filters="linearRGB" dx="0" dy="57" in="shadowSpreadOuter1" result="shadowOffsetOuter1"></feOffset><feGaussianBlur color-interpolation-filters="linearRGB" in="shadowOffsetOuter1" result="shadowBlurOuter1" stdDeviation="85.5 85.5"></feGaussianBlur><feComposite color-interpolation-filters="linearRGB" in="shadowBlurOuter1" in2="SourceAlpha" operator="out" result="shadowBlurOuter1"></feComposite><feColorMatrix color-interpolation-filters="linearRGB" in="shadowBlurOuter1" result="result5" type="matrix" values="0 0 0 0 1 0 0 0 0 1 0 0 0 0 1 0 0 0 0.5 0"></feColorMatrix></filter><filter filterUnits="objectBoundingBox" height="509.95" id="filter-4" node-id="15" width="509.94998" x="78.20335" y="47.370003"><feGaussianBlur color-interpolation-filters="linearRGB" in="SourceGraphic" result="result1" stdDeviation="33.333332 33.333332"></feGaussianBlur></filter><filter filterUnits="objectBoundingBox" height="357.24664" id="filter-7" node-id="21" width="627.9684" x="111.432495" y="477.90668"><feOffset color-interpolation-filters="linearRGB" dx="0" dy="0" in="SourceAlpha" result="shadowOffsetOuter1"></feOffset><feGaussianBlur color-interpolation-filters="linearRGB" in="shadowOffsetOuter1" result="shadowBlurOuter1" stdDeviation="14 14"></feGaussianBlur><feColorMatrix color-interpolation-filters="linearRGB" in="shadowBlurOuter1" result="result3" type="matrix" values="0 0 0 0 0.5882353 0 0 0 0 0.85490197 0 0 0 0 0.9411765 0 0 0 0.7 0"></feColorMatrix></filter><filter filterUnits="objectBoundingBox" height="155.72101" id="filter-11" node-id="32" width="209.1195" x="328.73785" y="412.66974"><feOffset color-interpolation-filters="linearRGB" dx="0" dy="0" in="SourceAlpha" result="shadowOffsetOuter1"></feOffset><feGaussianBlur color-interpolation-filters="linearRGB" in="shadowOffsetOuter1" result="shadowBlurOuter1" stdDeviation="14 14"></feGaussianBlur><feColorMatrix color-interpolation-filters="linearRGB" in="shadowBlurOuter1" result="result3" type="matrix" values="0 0 0 0 0.5882353 0 0 0 0 0.85490197 0 0 0 0 0.9411765 0 0 0 0.7 0"></feColorMatrix></filter><mask height="259.21564" id="mask-13" maskUnits="userSpaceOnUse" node-id="56" width="154.15662" x="507.0703" y="325.48492"><path d="M 418.20 384.80 L 414.30 390.40 L 411.30 395.70 L 409.20 400.60 L 407.80 405.30 L 407.10 409.70 L 407.00 413.90 L 407.60 418.00 L 408.70 421.90 L 410.50 425.80 L 412.90 429.70 L 416.10 433.60 L 420.10 437.40 L 425.00 441.30 L 431.10 445.30 L 431.00 453.80 L 431.50 461.80 L 432.50 469.50 L 434.00 476.70 L 436.10 483.60 L 438.60 490.10 L 441.60 496.40 L 445.00 502.30 L 449.00 508.00 L 453.50 513.50 L 458.60 518.70 L 464.30 523.60 L 470.50 528.40 L 477.50 532.90 L 485.10 537.20 L 493.50 541.30 L 502.70 545.00 L 512.80 548.60 L 520.60 547.30 L 528.10 545.60 L 535.10 543.40 L 541.90 540.70 L 548.30 537.50 L 554.40 533.90 L 560.20 529.80 L 565.80 525.20 L 571.10 520.00 L 576.20 514.30 L 581.00 508.00 L 585.60 501.10 L 590.00 493.50 L 594.00 485.20 L 597.90 476.10 L 601.40 466.30 L 604.60 455.50 L 607.50 443.80 L 613.50 440.90 L 618.50 437.90 L 622.60 434.80 L 625.90 431.60 L 628.50 428.20 L 630.40 424.70 L 631.80 421.00 L 632.60 417.00 L 632.80 412.80 L 632.40 408.30 L 631.40 403.40 L 629.50 398.00 L 626.80 392.10 L 623.10 385.70 L 609.80 334.90 L 553.70 276.10 L 458.40 282.80 L 427.70 314.60 L 418.20 384.80 Z" fill="#ffffff" fill-rule="evenodd" node-id="132" stroke="none" target-height="272.49997" target-width="225.79999" target-x="407" target-y="276.1"></path></mask><mask height="40.740936" id="mask1" maskUnits="userSpaceOnUse" node-id="136" width="13.872894" x="412.7771" y="401.37122"><path d="M 418.20 384.80 L 414.30 390.40 L 411.30 395.70 L 409.20 400.60 L 407.80 405.30 L 407.10 409.70 L 407.00 413.90 L 407.60 418.00 L 408.70 421.90 L 410.50 425.80 L 412.90 429.70 L 416.10 433.60 L 420.10 437.40 L 425.00 441.30 L 431.10 445.30 L 431.00 453.80 L 431.50 461.80 L 432.50 469.50 L 434.00 476.70 L 436.10 483.60 L 438.60 490.10 L 441.60 496.40 L 445.00 502.30 L 449.00 508.00 L 453.50 513.50 L 458.60 518.70 L 464.30 523.60 L 470.50 528.40 L 477.50 532.90 L 485.10 537.20 L 493.50 541.30 L 502.70 545.00 L 512.80 548.60 L 520.60 547.30 L 528.10 545.60 L 535.10 543.40 L 541.90 540.70 L 548.30 537.50 L 554.40 533.90 L 560.20 529.80 L 565.80 525.20 L 571.10 520.00 L 576.20 514.30 L 581.00 508.00 L 585.60 501.10 L 590.00 493.50 L 594.00 485.20 L 597.90 476.10 L 601.40 466.30 L 604.60 455.50 L 607.50 443.80 L 613.50 440.90 L 618.50 437.90 L 622.60 434.80 L 625.90 431.60 L 628.50 428.20 L 630.40 424.70 L 631.80 421.00 L 632.60 417.00 L 632.80 412.80 L 632.40 408.30 L 631.40 403.40 L 629.50 398.00 L 626.80 392.10 L 623.10 385.70 L 609.80 334.90 L 553.70 276.10 L 458.40 282.80 L 427.70 314.60 L 418.20 384.80 Z" fill="#ffffff" fill-rule="evenodd" node-id="140" stroke="none" target-height="272.49997" target-width="225.79999" target-x="407" target-y="276.1"></path></mask></defs><g node-id="202"><g node-id="203"><g node-id="205"><path d="M 881.80 483.60 L 881.50 498.30 L 880.60 512.90 L 879.20 527.40 L 877.20 541.80 L 874.60 556.00 L 871.50 570.20 L 867.80 584.20 L 863.60 598.00 L 858.90 611.60 L 853.60 625.10 L 847.80 638.30 L 841.60 651.30 L 834.80 664.00 L 827.50 676.50 L 819.70 688.70 L 811.40 700.60 L 802.60 712.20 L 793.40 723.40 L 783.70 734.40 L 773.50 745.00 L 762.80 755.20 L 751.90 765.00 L 740.60 774.20 L 729.10 782.90 L 717.20 791.20 L 704.90 799.00 L 692.40 806.30 L 679.70 813.10 L 666.70 819.40 L 653.50 825.20 L 640.10 830.50 L 626.40 835.20 L 612.60 839.40 L 598.70 843.00 L 584.50 846.20 L 570.20 848.70 L 555.80 850.70 L 541.40 852.20 L 526.70 853.00 L 512.00 853.30 L 497.30 853.00 L 482.60 852.20 L 468.20 850.70 L 453.80 848.70 L 439.50 846.20 L 425.30 843.00 L 411.40 839.40 L 397.60 835.20 L 383.90 830.50 L 370.50 825.20 L 357.30 819.40 L 344.30 813.10 L 331.60 806.30 L 319.10 799.00 L 306.80 791.20 L 294.90 782.90 L 283.40 774.20 L 272.10 765.00 L 261.20 755.20 L 250.50 745.00 L 240.30 734.40 L 230.60 723.40 L 221.40 712.20 L 212.60 700.60 L 204.30 688.70 L 196.50 676.50 L 189.20 664.00 L 182.40 651.30 L 176.20 638.30 L 170.40 625.10 L 165.10 611.60 L 160.40 598.00 L 156.20 584.20 L 152.50 570.20 L 149.40 556.00 L 146.80 541.80 L 144.80 527.40 L 143.40 512.90 L 142.50 498.30 L 142.20 483.60 L 142.50 468.80 L 143.40 454.20 L 144.80 439.70 L 146.80 425.30 L 149.40 411.10 L 152.50 396.90 L 156.20 382.90 L 160.40 369.10 L 165.10 355.50 L 170.40 342.00 L 176.20 328.80 L 182.40 315.80 L 189.20 303.10 L 196.50 290.60 L 204.30 278.40 L 212.60 266.50 L 221.40 254.90 L 230.60 243.70 L 240.30 232.70 L 250.50 222.10 L 261.20 211.90 L 272.10 202.20 L 283.40 192.90 L 294.90 184.20 L 306.80 175.90 L 319.10 168.10 L 331.60 160.80 L 344.30 154.00 L 357.30 147.70 L 370.50 141.90 L 383.90 136.70 L 397.60 131.90 L 411.40 127.70 L 425.30 124.10 L 439.50 120.90 L 453.80 118.40 L 468.20 116.40 L 482.60 114.90 L 497.30 114.10 L 512.00 113.80 L 526.70 114.10 L 541.40 114.90 L 555.80 116.40 L 570.20 118.40 L 584.50 120.90 L 598.70 124.10 L 612.60 127.70 L 626.40 131.90 L 640.10 136.70 L 653.50 141.90 L 666.70 147.70 L 679.70 154.00 L 692.40 160.80 L 704.90 168.10 L 717.20 175.90 L 729.10 184.20 L 740.60 192.90 L 751.90 202.20 L 762.80 211.90 L 773.50 222.10 L 783.70 232.70 L 793.40 243.70 L 802.60 254.90 L 811.40 266.50 L 819.70 278.40 L 827.50 290.60 L 834.80 303.10 L 841.60 315.80 L 847.80 328.80 L 853.60 342.00 L 858.90 355.50 L 863.60 369.10 L 867.80 382.90 L 871.50 396.90 L 874.60 411.10 L 877.20 425.30 L 879.20 439.70 L 880.60 454.20 L 881.50 468.80 L 881.80 483.60 Z" fill="#000000" fill-rule="evenodd" filter="url(#filter-2)" group-id="1,2,4" node-id="150" stroke="none" target-height="739.5" target-width="739.6" target-x="142.2" target-y="113.8"></path></g><path d="M 888.90 483.60 L 888.60 498.60 L 887.70 513.50 L 886.20 528.20 L 884.20 542.90 L 881.60 557.40 L 878.40 571.90 L 874.70 586.10 L 870.40 600.20 L 865.60 614.10 L 860.20 627.80 L 854.30 641.30 L 847.90 654.50 L 841.00 667.50 L 833.50 680.20 L 825.60 692.70 L 817.10 704.80 L 808.20 716.60 L 798.80 728.10 L 788.90 739.20 L 778.50 750.10 L 767.70 760.50 L 756.50 770.40 L 745.00 779.80 L 733.20 788.70 L 721.10 797.10 L 708.60 805.10 L 695.90 812.50 L 682.90 819.40 L 669.70 825.90 L 656.20 831.80 L 642.50 837.10 L 628.60 841.90 L 614.60 846.20 L 600.30 849.90 L 585.90 853.10 L 571.30 855.80 L 556.70 857.80 L 541.90 859.30 L 527.00 860.10 L 512.00 860.40 L 497.00 860.10 L 482.10 859.30 L 467.30 857.80 L 452.70 855.80 L 438.10 853.10 L 423.70 849.90 L 409.40 846.20 L 395.40 841.90 L 381.50 837.10 L 367.80 831.80 L 354.30 825.90 L 341.10 819.40 L 328.10 812.50 L 315.40 805.10 L 302.90 797.10 L 290.80 788.70 L 279.00 779.80 L 267.50 770.40 L 256.30 760.50 L 245.50 750.10 L 235.10 739.20 L 225.20 728.10 L 215.80 716.60 L 206.90 704.80 L 198.40 692.70 L 190.50 680.20 L 183.00 667.50 L 176.10 654.50 L 169.70 641.30 L 163.80 627.80 L 158.40 614.10 L 153.60 600.20 L 149.30 586.10 L 145.60 571.90 L 142.40 557.40 L 139.80 542.90 L 137.80 528.20 L 136.30 513.50 L 135.40 498.60 L 135.10 483.60 L 135.40 468.50 L 136.30 453.60 L 137.80 438.90 L 139.80 424.20 L 142.40 409.70 L 145.60 395.20 L 149.30 381.00 L 153.60 366.90 L 158.40 353.00 L 163.80 339.30 L 169.70 325.80 L 176.10 312.60 L 183.00 299.60 L 190.50 286.90 L 198.40 274.50 L 206.90 262.30 L 215.80 250.50 L 225.20 239.10 L 235.10 227.90 L 245.50 217.10 L 256.30 206.60 L 267.50 196.70 L 279.00 187.30 L 290.80 178.40 L 302.90 170.00 L 315.40 162.00 L 328.10 154.60 L 341.10 147.70 L 354.30 141.30 L 367.80 135.40 L 381.50 130.00 L 395.40 125.20 L 409.40 120.90 L 423.70 117.20 L 438.10 114.00 L 452.70 111.40 L 467.30 109.30 L 482.10 107.90 L 497.00 107.00 L 512.00 106.70 L 527.00 107.00 L 541.90 107.90 L 556.70 109.30 L 571.30 111.40 L 585.90 114.00 L 600.30 117.20 L 614.60 120.90 L 628.60 125.20 L 642.50 130.00 L 656.20 135.40 L 669.70 141.30 L 682.90 147.70 L 695.90 154.60 L 708.60 162.00 L 721.10 170.00 L 733.20 178.40 L 745.00 187.30 L 756.50 196.70 L 767.70 206.60 L 778.50 217.10 L 788.90 227.90 L 798.80 239.10 L 808.20 250.50 L 817.10 262.30 L 825.60 274.50 L 833.50 286.90 L 841.00 299.60 L 847.90 312.60 L 854.30 325.80 L 860.20 339.30 L 865.60 353.00 L 870.40 366.90 L 874.70 381.00 L 878.40 395.20 L 881.60 409.70 L 884.20 424.20 L 886.20 438.90 L 887.70 453.60 L 888.60 468.50 L 888.90 483.60 Z" fill="#ffffff" fill-opacity="0.6" fill-rule="evenodd" group-id="1,2" node-id="153" stroke="#ffffff" stroke-linecap="butt" stroke-width="14.222222" target-height="753.7" target-width="753.80005" target-x="135.1" target-y="106.7"></path></g><g node-id="204"><path d="M 885.30 483.60 L 885.00 498.40 L 884.20 513.20 L 882.70 527.80 L 880.70 542.30 L 878.10 556.70 L 874.90 571.00 L 871.20 585.20 L 867.00 599.10 L 862.20 612.80 L 856.90 626.40 L 851.10 639.80 L 844.70 652.90 L 837.90 665.70 L 830.50 678.30 L 822.60 690.70 L 814.30 702.70 L 805.40 714.40 L 796.10 725.80 L 786.30 736.80 L 776.00 747.50 L 765.20 757.90 L 754.20 767.70 L 742.80 777.00 L 731.10 785.80 L 719.10 794.20 L 706.80 802.10 L 694.20 809.40 L 681.30 816.30 L 668.20 822.60 L 654.90 828.50 L 641.30 833.80 L 627.50 838.60 L 613.60 842.80 L 599.50 846.50 L 585.20 849.60 L 570.80 852.20 L 556.30 854.30 L 541.60 855.70 L 526.90 856.60 L 512.00 856.90 L 497.10 856.60 L 482.40 855.70 L 467.70 854.30 L 453.20 852.20 L 438.80 849.60 L 424.50 846.50 L 410.40 842.80 L 396.50 838.60 L 382.70 833.80 L 369.10 828.50 L 355.80 822.60 L 342.70 816.30 L 329.80 809.40 L 317.20 802.10 L 304.90 794.20 L 292.90 785.80 L 281.20 777.00 L 269.80 767.70 L 258.80 757.90 L 248.00 747.50 L 237.70 736.80 L 227.90 725.80 L 218.60 714.40 L 209.70 702.70 L 201.40 690.70 L 193.50 678.30 L 186.10 665.70 L 179.30 652.90 L 172.90 639.80 L 167.10 626.40 L 161.80 612.80 L 157.00 599.10 L 152.80 585.20 L 149.10 571.00 L 145.90 556.70 L 143.30 542.30 L 141.30 527.80 L 139.80 513.20 L 139.00 498.40 L 138.70 483.60 L 139.00 468.70 L 139.80 453.90 L 141.30 439.30 L 143.30 424.80 L 145.90 410.40 L 149.10 396.10 L 152.80 381.90 L 157.00 368.00 L 161.80 354.30 L 167.10 340.70 L 172.90 327.30 L 179.30 314.20 L 186.10 301.40 L 193.50 288.80 L 201.40 276.40 L 209.70 264.40 L 218.60 252.70 L 227.90 241.40 L 237.70 230.30 L 248.00 219.60 L 258.80 209.30 L 269.80 199.40 L 281.20 190.10 L 292.90 181.30 L 304.90 172.90 L 317.20 165.10 L 329.80 157.70 L 342.70 150.80 L 355.80 144.50 L 369.10 138.60 L 382.70 133.30 L 396.50 128.50 L 410.40 124.30 L 424.50 120.60 L 438.80 117.50 L 453.20 114.90 L 467.70 112.90 L 482.40 111.40 L 497.10 110.50 L 512.00 110.20 L 526.90 110.50 L 541.60 111.40 L 556.30 112.90 L 570.80 114.90 L 585.20 117.50 L 599.50 120.60 L 613.60 124.30 L 627.50 128.50 L 641.30 133.30 L 654.90 138.60 L 668.20 144.50 L 681.30 150.80 L 694.20 157.70 L 706.80 165.10 L 719.10 172.90 L 731.10 181.30 L 742.80 190.10 L 754.20 199.40 L 765.20 209.30 L 776.00 219.60 L 786.30 230.30 L 796.10 241.40 L 805.40 252.70 L 814.30 264.40 L 822.60 276.40 L 830.50 288.80 L 837.90 301.40 L 844.70 314.20 L 851.10 327.30 L 856.90 340.70 L 862.20 354.30 L 867.00 368.00 L 871.20 381.90 L 874.90 396.10 L 878.10 410.40 L 880.70 424.80 L 882.70 439.30 L 884.20 453.90 L 885.00 468.70 L 885.30 483.60 Z" fill="url(#linearGradient-3)" fill-opacity="0.5" fill-rule="evenodd" group-id="1,3" id="椭圆形" node-id="43" stroke="none" target-height="746.7" target-width="746.6" target-x="138.7" target-y="110.2"></path><g node-id="206"><path d="M 573.70 359.40 L 573.40 368.00 L 572.70 376.40 L 571.60 384.60 L 570.10 392.70 L 568.10 400.60 L 565.70 408.40 L 563.00 416.00 L 559.90 423.40 L 556.40 430.60 L 552.50 437.60 L 547.20 446.10 L 541.40 454.10 L 535.10 461.70 L 528.30 469.00 L 521.00 475.80 L 513.40 482.10 L 505.40 487.90 L 496.90 493.20 L 489.90 497.10 L 482.70 500.60 L 475.30 503.70 L 467.70 506.50 L 459.90 508.90 L 452.00 510.80 L 443.90 512.30 L 435.70 513.50 L 427.30 514.10 L 418.70 514.40 L 410.10 514.10 L 401.70 513.50 L 393.40 512.30 L 385.40 510.80 L 377.50 508.90 L 369.60 506.50 L 362.00 503.70 L 354.60 500.60 L 347.40 497.10 L 340.40 493.20 L 332.00 487.90 L 323.90 482.10 L 316.30 475.80 L 309.10 469.00 L 302.30 461.70 L 296.00 454.10 L 290.20 446.10 L 284.80 437.60 L 281.00 430.60 L 277.50 423.40 L 274.40 416.00 L 271.60 408.40 L 269.20 400.60 L 267.20 392.70 L 265.70 384.60 L 264.60 376.40 L 263.90 368.00 L 263.70 359.40 L 263.90 350.80 L 264.60 342.40 L 265.70 334.10 L 267.20 326.10 L 269.20 318.20 L 271.60 310.30 L 274.40 302.70 L 277.50 295.30 L 281.00 288.10 L 284.80 281.20 L 290.20 272.70 L 296.00 264.70 L 302.30 257.00 L 309.10 249.80 L 316.30 243.00 L 323.90 236.70 L 332.00 230.90 L 340.40 225.60 L 347.40 221.70 L 354.60 218.20 L 362.00 215.10 L 369.60 212.30 L 377.50 209.90 L 385.40 208.00 L 393.40 206.40 L 401.70 205.30 L 410.10 204.60 L 418.70 204.40 L 427.30 204.60 L 435.70 205.30 L 443.90 206.40 L 452.00 208.00 L 459.90 209.90 L 467.70 212.30 L 475.30 215.10 L 482.70 218.20 L 489.90 221.70 L 496.90 225.60 L 505.40 230.90 L 513.40 236.70 L 521.00 243.00 L 528.30 249.80 L 535.10 257.00 L 541.40 264.70 L 547.20 272.70 L 552.50 281.20 L 556.40 288.10 L 559.90 295.30 L 563.00 302.70 L 565.70 310.30 L 568.10 318.20 L 570.10 326.10 L 571.60 334.10 L 572.70 342.40 L 573.40 350.80 L 573.70 359.40 Z" fill="#ffffff" fill-opacity="0.5" fill-rule="evenodd" filter="url(#filter-4)" group-id="1,3,5" id="椭圆形" node-id="44" stroke="none" target-height="310.00003" target-width="310" target-x="263.7" target-y="204.4"></path></g><g node-id="207"><g node-id="211"><path d="M 238.70 724.70 L 239.20 713.80 L 240.20 703.70 L 241.80 694.40 L 243.80 685.80 L 246.20 677.80 L 249.10 670.50 L 252.30 663.70 L 256.00 657.50 L 260.00 651.70 L 264.50 646.40 L 269.30 641.60 L 274.60 637.10 L 280.40 633.00 L 287.70 628.40 L 296.60 623.50 L 307.50 618.30 L 320.50 612.60 L 335.90 606.40 L 354.00 599.80 L 375.00 592.70 L 399.30 585.10 L 427.20 576.90 L 518.70 583.00 L 606.20 576.90 L 622.50 580.80 L 638.20 585.20 L 653.50 590.00 L 668.30 595.30 L 682.70 601.10 L 696.60 607.40 L 710.10 614.10 L 723.20 621.30 L 736.00 629.00 L 748.30 637.10 L 754.40 644.40 L 759.80 651.80 L 764.60 659.30 L 768.80 666.80 L 772.50 674.40 L 775.60 682.20 L 778.20 690.00 L 780.30 698.00 L 781.80 706.10 L 782.80 714.40 L 771.70 727.60 L 760.40 739.90 L 749.00 751.50 L 737.50 762.40 L 725.80 772.60 L 713.90 782.10 L 701.90 790.90 L 689.80 799.00 L 677.40 806.60 L 664.90 813.50 L 652.20 819.80 L 639.30 825.50 L 626.20 830.60 L 612.90 835.10 L 599.30 839.00 L 585.50 842.40 L 571.40 845.10 L 557.10 847.30 L 542.40 848.90 L 527.50 849.90 L 513.70 850.20 L 499.90 850.00 L 486.30 849.10 L 472.60 847.70 L 459.10 845.70 L 445.50 843.10 L 432.00 839.90 L 418.50 836.10 L 404.90 831.70 L 391.40 826.70 L 377.80 821.00 L 364.20 814.70 L 350.50 807.70 L 336.80 800.00 L 323.00 791.60 L 309.20 782.40 L 295.30 772.50 L 281.30 761.80 L 267.20 750.30 L 253.00 737.90 L 238.70 724.70 Z" fill="#000000" fill-rule="evenodd" filter="url(#filter-7)" group-id="1,3,6,10" node-id="165" stroke="none" target-height="273.3" target-width="544.1" target-x="238.7" target-y="576.9"></path></g><path d="M 238.70 724.70 L 239.20 713.80 L 240.20 703.70 L 241.80 694.40 L 243.80 685.80 L 246.20 677.80 L 249.10 670.50 L 252.30 663.70 L 256.00 657.50 L 260.00 651.70 L 264.50 646.40 L 269.30 641.60 L 274.60 637.10 L 280.40 633.00 L 287.70 628.40 L 296.60 623.50 L 307.50 618.30 L 320.50 612.60 L 335.90 606.40 L 354.00 599.80 L 375.00 592.70 L 399.30 585.10 L 427.20 576.90 L 518.70 583.00 L 606.20 576.90 L 622.50 580.80 L 638.20 585.20 L 653.50 590.00 L 668.30 595.30 L 682.70 601.10 L 696.60 607.40 L 710.10 614.10 L 723.20 621.30 L 736.00 629.00 L 748.30 637.10 L 754.40 644.40 L 759.80 651.80 L 764.60 659.30 L 768.80 666.80 L 772.50 674.40 L 775.60 682.20 L 778.20 690.00 L 780.30 698.00 L 781.80 706.10 L 782.80 714.40 L 771.70 727.60 L 760.40 739.90 L 749.00 751.50 L 737.50 762.40 L 725.80 772.60 L 713.90 782.10 L 701.90 790.90 L 689.80 799.00 L 677.40 806.60 L 664.90 813.50 L 652.20 819.80 L 639.30 825.50 L 626.20 830.60 L 612.90 835.10 L 599.30 839.00 L 585.50 842.40 L 571.40 845.10 L 557.10 847.30 L 542.40 848.90 L 527.50 849.90 L 513.70 850.20 L 499.90 850.00 L 486.30 849.10 L 472.60 847.70 L 459.10 845.70 L 445.50 843.10 L 432.00 839.90 L 418.50 836.10 L 404.90 831.70 L 391.40 826.70 L 377.80 821.00 L 364.20 814.70 L 350.50 807.70 L 336.80 800.00 L 323.00 791.60 L 309.20 782.40 L 295.30 772.50 L 281.30 761.80 L 267.20 750.30 L 253.00 737.90 L 238.70 724.70 Z" fill="url(#radialGradient-5)" fill-rule="evenodd" group-id="1,3,6,11" node-id="170" stroke="none" target-height="273.3" target-width="544.1" target-x="238.7" target-y="576.9"></path></g><path d="M 588.70 667.70 L 695.30 667.70 L 695.30 750.20 L 639.80 770.00 L 588.70 750.20 Z" fill="url(#radialGradient-8)" fill-opacity="0.5" fill-rule="evenodd" group-id="1,3" id="矩形" node-id="48" stroke="none" target-height="102.29999" target-width="106.599976" target-x="588.7" target-y="667.7"></path><path d="M 454.50 546.30 L 427.80 577.10 L 491.80 636.90 L 516.20 583.10 Z" fill="url(#radialGradient1)" fill-rule="evenodd" group-id="1,3" id="路径-2" node-id="49" stroke="none" target-height="90.60004" target-width="88.400024" target-x="427.8" target-y="546.3"></path><g node-id="208"><path d="M 584.10 546.30 L 607.80 577.10 L 543.80 636.90 L 519.50 583.10 Z" fill="url(#radialGradient-9)" fill-rule="evenodd" group-id="1,3,7" id="路径-2备份" node-id="50" stroke="none" target-height="90.60004" target-width="88.29999" target-x="519.5" target-y="546.3"></path></g><g node-id="209"><g node-id="213"><path d="M 456.10 513.60 L 456.10 546.30 L 517.80 583.30 L 581.20 547.30 L 581.20 511.60 Z" fill="#000000" fill-rule="evenodd" filter="url(#filter-11)" group-id="1,3,8,12" node-id="183" stroke="none" target-height="71.69998" target-width="125.100006" target-x="456.1" target-y="511.6"></path></g><path d="M 456.10 513.60 L 456.10 546.30 L 517.80 583.30 L 581.20 547.30 L 581.20 511.60 Z" fill="#f3d0c5" fill-rule="evenodd" group-id="1,3,8,13" node-id="188" stroke="none" target-height="71.69998" target-width="125.100006" target-x="456.1" target-y="511.6"></path></g><path d="M 456.10 513.60 L 458.20 517.50 L 461.20 521.70 L 465.20 526.30 L 470.30 531.20 L 476.80 536.50 L 484.70 542.20 L 494.40 548.40 L 506.10 555.10 L 519.90 562.30 L 530.60 556.40 L 540.10 550.60 L 548.60 544.80 L 556.00 539.10 L 562.60 533.50 L 568.30 528.00 L 573.30 522.60 L 577.50 517.20 L 581.10 511.80 L 457.20 511.10 L 456.10 513.60 Z" fill="#eec6b9" fill-rule="evenodd" group-id="1,3" id="路径" node-id="54" stroke="none" target-height="51.19998" target-width="124.99997" target-x="456.1" target-y="511.1"></path><g node-id="210"><g node-id="215"><path d="M 416.90 390.10 L 413.30 396.00 L 410.60 401.40 L 408.70 406.50 L 407.60 411.20 L 407.10 415.60 L 407.30 419.80 L 408.00 423.80 L 409.40 427.70 L 411.30 431.50 L 413.90 435.30 L 417.30 439.00 L 421.50 442.60 L 426.70 446.30 L 432.90 449.90 L 433.30 458.40 L 434.20 466.40 L 435.60 474.00 L 437.50 481.10 L 439.90 487.90 L 442.70 494.30 L 446.10 500.30 L 449.80 506.10 L 454.10 511.60 L 458.90 516.80 L 464.30 521.70 L 470.20 526.40 L 476.70 530.80 L 483.80 535.00 L 491.70 538.90 L 500.30 542.50 L 509.70 545.80 L 519.90 548.70 L 527.70 547.10 L 535.00 545.00 L 542.00 542.40 L 548.60 539.40 L 554.80 535.90 L 560.70 531.90 L 566.30 527.50 L 571.60 522.60 L 576.70 517.20 L 581.40 511.20 L 585.90 504.70 L 590.20 497.50 L 594.10 489.70 L 597.80 481.20 L 601.10 472.00 L 604.10 461.90 L 606.80 451.00 L 609.10 439.20 L 614.90 436.00 L 619.70 432.70 L 623.60 429.40 L 626.80 426.00 L 629.20 422.50 L 630.90 418.90 L 632.10 415.10 L 632.70 411.10 L 632.70 406.90 L 632.10 402.40 L 630.70 397.60 L 628.60 392.30 L 625.60 386.60 L 621.60 380.30 L 605.70 330.30 L 546.50 274.50 L 451.70 286.20 L 422.70 319.50 L 416.90 390.10 Z" fill="#fcded5" fill-rule="evenodd" group-id="1,3,9,14" node-id="195" stroke="none" target-height="274.2" target-width="225.6" target-x="407.1" target-y="274.5"></path></g><g node-id="216"><path d="M 601.80 347.10 L 602.70 365.60 L 603.00 382.80 L 602.60 398.80 L 601.70 413.70 L 600.30 427.40 L 598.40 440.20 L 596.10 452.00 L 593.40 462.90 L 590.30 473.00 L 586.80 482.20 L 583.10 490.80 L 578.90 498.70 L 574.50 505.90 L 569.80 512.50 L 564.70 518.60 L 559.40 524.20 L 553.70 529.20 L 547.70 533.80 L 541.30 537.80 L 534.60 541.50 L 527.50 544.60 L 519.90 547.30 L 520.00 563.10 L 618.70 514.40 L 648.40 406.30 L 627.70 347.10 L 601.80 347.10 Z" fill="#f9d7cd" fill-rule="evenodd" group-id="1,3,9,15" node-id="200" stroke="none" target-height="215.99997" target-width="128.5" target-x="519.9" target-y="347.1"></path></g><path d="M 425.50 438.70 L 421.10 433.50 L 417.90 428.90 L 415.80 424.90 L 414.60 421.40 L 414.00 418.40 L 414.00 415.60 L 414.60 413.20 L 415.70 410.90 L 417.40 408.70 L 419.70 406.70 L 422.80 404.80 L 423.70 422.40 L 425.50 438.70 Z" fill="#f0c6b9" fill-rule="evenodd" group-id="1,3,9,16" id="路径-8" node-id="60" stroke="none" target-height="33.900024" target-width="11.5" target-x="414" target-y="404.8"></path></g><path d="M 589.00 337.40 L 579.40 342.00 L 570.10 345.80 L 560.90 349.00 L 552.00 351.40 L 543.20 353.20 L 534.50 354.30 L 526.00 354.80 L 517.60 354.70 L 509.20 354.00 L 501.00 352.80 L 492.70 350.90 L 484.50 348.40 L 476.20 345.20 L 481.50 341.40 L 581.10 334.00 L 589.00 337.40 Z" fill="#efc6b9" fill-rule="evenodd" group-id="1,3" id="路径-5" node-id="61" stroke="none" target-height="20.799988" target-width="112.79999" target-x="476.2" target-y="334"></path><path d="M 419.50 397.90 L 416.40 385.10 L 414.00 373.10 L 412.40 362.00 L 411.50 351.60 L 411.20 341.90 L 411.40 332.80 L 412.20 324.40 L 413.50 316.50 L 415.30 309.10 L 417.60 302.20 L 420.30 295.70 L 423.50 289.60 L 427.10 283.90 L 431.10 278.60 L 435.70 273.60 L 440.70 268.90 L 444.80 263.80 L 449.20 259.20 L 454.00 255.00 L 459.10 251.30 L 464.60 248.00 L 470.50 245.10 L 476.80 242.60 L 483.60 240.60 L 490.90 239.00 L 498.80 237.80 L 507.30 237.20 L 516.40 237.10 L 526.20 237.50 L 536.80 238.60 L 548.20 240.40 L 560.50 242.90 L 573.70 246.20 L 583.50 252.90 L 591.90 259.30 L 599.10 265.40 L 605.10 271.20 L 610.10 276.70 L 614.20 281.90 L 617.40 286.90 L 620.00 291.70 L 621.80 296.30 L 623.10 310.70 L 624.00 324.50 L 624.20 337.80 L 624.00 350.60 L 623.30 362.80 L 622.20 374.50 L 620.50 385.80 L 618.50 396.60 L 616.00 407.00 L 613.20 417.00 L 609.70 410.70 L 607.00 404.50 L 604.90 398.20 L 603.40 391.90 L 601.00 373.90 L 598.40 361.50 L 594.50 348.90 L 592.00 342.90 L 589.00 337.40 L 577.20 341.50 L 565.80 344.80 L 554.80 347.40 L 544.30 349.40 L 534.10 350.70 L 524.40 351.40 L 514.90 351.50 L 505.70 351.10 L 496.90 350.20 L 488.30 348.70 L 479.90 346.60 L 471.80 344.10 L 463.80 341.00 L 456.10 337.40 L 452.70 341.10 L 449.50 345.20 L 446.80 350.00 L 444.30 355.30 L 442.30 361.30 L 440.60 368.00 L 439.30 375.50 L 438.50 383.90 L 438.20 393.30 L 436.10 419.70 L 419.50 397.90 Z" fill="#656565" fill-rule="evenodd" group-id="1,3" id="路径-6" node-id="62" stroke="none" target-height="182.6" target-width="213" target-x="411.2" target-y="237.1"></path></g></g></svg>