<svg xmlns="http://www.w3.org/2000/svg" xmlns:xlink="http://www.w3.org/1999/xlink" fill="none" version="1.1" width="24" height="24" viewBox="0 0 24 24"><defs><clipPath id="master_svg0_676_19749/667_024490"><rect x="0" y="0" width="24" height="24" rx="0"/></clipPath></defs><g clip-path="url(#master_svg0_676_19749/667_024490)"><g><path d="M12.0002,3.23235C13.5819,4.0567,14.7825,5.51252,15.2664,7.26605C15.4134,7.79843,15.9641,8.1109,16.4964,7.96396C17.0288,7.81702,17.3413,7.26633,17.1943,6.73395C16.7346,5.06811,15.7806,3.60711,14.4998,2.5190001C14.665,2.50640988,14.8318,2.5,15,2.5C17.0071,2.5,18.6792,3.2279999999999998,19.8307,4.60982C20.962,5.96738,21.5,7.84558,21.5,10C21.5,13.0971,20.9858,15.8652,20.1051,17.8976C19.265,19.8362,17.897399999999998,21.5,16,21.5C14.8997,21.5,14.2129,20.8477,13.8053,20.1396C13.4431,19.5106,13.2269,18.7169,13.0529,18.0779C12.8459,17.3179,12.6873,16.7504,12.4615,16.3583C12.2754,16.0352,12.1497,16,12,16C11.8503,16,11.7246,16.0352,11.5385,16.3583C11.3127,16.7504,11.1541,17.3179,10.9471,18.0779C10.7731,18.7169,10.5569,19.5106,10.194700000000001,20.1396C9.78706,20.8477,9.10027,21.5,8,21.5C6.1026,21.5,4.73499,19.8362,3.89494,17.8976C3.01425,15.8652,2.5,13.0971,2.5,10C2.5,7.84558,3.03797,5.96738,4.1692800000000005,4.60982C5.320790000000001,3.2279999999999998,6.9929,2.5,9,2.5C9.00948,2.5,9.01896,2.5000200272,9.02843,2.5000600815C10.098700000000001,2.50465989,11.1098,2.7686,12.0002,3.23235Z" fill="#FFFFFF" fill-opacity="1"/></g></g></svg>