<svg xmlns="http://www.w3.org/2000/svg" xmlns:xlink="http://www.w3.org/1999/xlink" fill="none" version="1.1" width="14" height="14" viewBox="0 0 14 14"><defs><clipPath id="master_svg0_667_039602/667_040582"><rect x="0" y="0" width="14" height="14" rx="0"/></clipPath></defs><g clip-path="url(#master_svg0_667_039602/667_040582)"><g><path d="M8.77864,4.97972L10.84172,2.91667L8.16667,2.91667L8.16667,1.75L12.8333,1.75L12.8333,6.41667L11.66667,6.41667L11.66667,3.74162L9.60359,5.80468C10.16598,6.54074,10.5,7.46054,10.5,8.45833C10.5,10.87456,8.54122,12.8333,6.125,12.8333C3.70875,12.8333,1.75,10.87456,1.75,8.45833C1.75,6.04211,3.70875,4.08333,6.125,4.08333C7.12279,4.08333,8.04259,4.41737,8.77864,4.97972ZM6.125,11.66667C7.89693,11.66667,9.33333,10.23027,9.33333,8.45833C9.33333,6.6864,7.89693,5.25,6.125,5.25C4.35308,5.25,2.91667,6.6864,2.91667,8.45833C2.91667,10.23027,4.35308,11.66667,6.125,11.66667Z" fill="#4080FF" fill-opacity="1"/></g></g></svg>