<svg xmlns="http://www.w3.org/2000/svg" xmlns:xlink="http://www.w3.org/1999/xlink" fill="none" version="1.1" width="16" height="16" viewBox="0 0 16 16"><defs><clipPath id="master_svg0_667_045849/3_8287"><rect x="0" y="0" width="16" height="16" rx="0"/></clipPath></defs><g clip-path="url(#master_svg0_667_045849/3_8287)"><g><path d="M8,1C4.13438,1,1,4.13438,1,8C1,11.8656,4.13438,15,8,15C11.8656,15,15,11.8656,15,8C15,4.13438,11.8656,1,8,1ZM8,13.8125C4.79063,13.8125,2.1875,11.2094,2.1875,8C2.1875,4.79063,4.79063,2.1875,8,2.1875C11.2094,2.1875,13.8125,4.79063,13.8125,8C13.8125,11.2094,11.2094,13.8125,8,13.8125Z" fill="#FFFFFF" fill-opacity="1"/></g><g style="opacity:0.10000000149011612;"><path d="M8,2.1875C4.79063,2.1875,2.1875,4.79063,2.1875,8C2.1875,11.20938,4.79063,13.8125,8,13.8125C11.20938,13.8125,13.8125,11.20938,13.8125,8C13.8125,4.79063,11.20938,2.1875,8,2.1875ZM10.56406,8.096879999999999C10.56406,8.096879999999999,7.15156,10.57969,7.15156,10.57969C7.13285,10.59313,7.1108,10.60116,7.08783,10.60288C7.06486,10.60461,7.04185,10.59997,7.02134,10.58948C7.00084,10.57898,6.98362,10.56303,6.97158,10.54339C6.95955,10.52374,6.95316,10.50116,6.95312,10.47812C6.95312,10.47812,6.95312,5.51562,6.95312,5.51562C6.95305,5.49254,6.95937,5.4698899999999995,6.97138,5.45017C6.98339,5.43046,7.00062,5.41446,7.02117,5.40394C7.04172,5.39342,7.06478,5.3888,7.0878,5.3905899999999995C7.11081,5.39238,7.13288,5.4005,7.15156,5.41406C7.15156,5.41406,10.56406,7.89531,10.56406,7.89531C10.58018,7.90671,10.59334,7.92182,10.60241,7.93935C10.61149,7.95689,10.61623,7.97635,10.61623,7.99609C10.61623,8.01584,10.61149,8.0353,10.60241,8.05283C10.59334,8.07037,10.58018,8.08547,10.56406,8.096879999999999C10.56406,8.096879999999999,10.56406,8.096879999999999,10.56406,8.096879999999999Z" fill="#FFFFFF" fill-opacity="1"/></g><g><path d="M10.564034972839355,7.894768927917481C10.564034972839355,7.894768927917481,7.151542972839356,5.413506627917481,7.151542972839356,5.413506627917481C7.132862972839355,5.399944727917481,7.110791972839356,5.39182011791748,7.087776972839356,5.390033801917481C7.064762972839356,5.38824748791748,7.041702772839355,5.392869047917481,7.021153972839356,5.403386227917481C7.000605072839355,5.4139034279174805,6.983370072839356,5.42990562791748,6.971358972839355,5.449618627917481C6.959347782839355,5.46933162791748,6.953029936239355,5.49198592791748,6.953105645364356,5.51506992791748C6.953105645364356,5.51506992791748,6.953105645364356,10.47758892791748,6.953105645364356,10.47758892791748C6.953142708839356,10.50062892791748,6.9595298428393555,10.52320892791748,6.971564872839355,10.54284892791748C6.983599972839356,10.562498927917481,7.0008170728393555,10.578438927917482,7.021324672839356,10.58893892791748C7.041832272839356,10.59943892791748,7.064836972839355,10.604078927917481,7.087808972839356,10.60234892791748C7.110781972839355,10.60061892791748,7.1328339728393555,10.59259892791748,7.151542972839356,10.57914892791748C7.151542972839356,10.57914892791748,10.564034972839355,8.09632892791748,10.564034972839355,8.09632892791748C10.580154972839356,8.084928927917481,10.593304972839356,8.06982892791748,10.602384972839356,8.05228892791748C10.611464972839356,8.03474892791748,10.616194972839356,8.015298927917481,10.616194972839356,7.995548927917481C10.616194972839356,7.975798927917481,10.611464972839356,7.95633892791748,10.602384972839356,7.9388089279174805C10.593304972839356,7.921268927917481,10.580154972839356,7.906168927917481,10.564034972839355,7.894768927917481C10.564034972839355,7.894768927917481,10.564034972839355,7.894768927917481,10.564034972839355,7.894768927917481Z" fill="#FFFFFF" fill-opacity="1"/></g></g></svg>