<svg xmlns="http://www.w3.org/2000/svg" xmlns:xlink="http://www.w3.org/1999/xlink" fill="none" version="1.1" width="16" height="16" viewBox="0 0 16 16"><defs><clipPath id="master_svg0_667_038487/3_8287"><rect x="0" y="0" width="16" height="16" rx="0"/></clipPath></defs><g clip-path="url(#master_svg0_667_038487/3_8287)"><g><path d="M8.46875,2.3749923706054688L7.53125,2.3749923706054688Q7.40625,2.3749923706054688,7.40625,2.4999923706054688L7.40625,7.406242370605469L2.75,7.406242370605469Q2.625,7.406242370605469,2.625,7.531242370605469L2.625,8.468742370605469Q2.625,8.593742370605469,2.75,8.593742370605469L7.40625,8.593742370605469L7.40625,13.499992370605469Q7.40625,13.624992370605469,7.53125,13.624992370605469L8.46875,13.624992370605469Q8.59375,13.624992370605469,8.59375,13.499992370605469L8.59375,8.593742370605469L13.25,8.593742370605469Q13.375,8.593742370605469,13.375,8.468742370605469L13.375,7.531242370605469Q13.375,7.406242370605469,13.25,7.406242370605469L8.59375,7.406242370605469L8.59375,2.4999923706054688Q8.59375,2.3749923706054688,8.46875,2.3749923706054688Z" fill-rule="evenodd" fill="#FFFFFF" fill-opacity="1"/></g></g></svg>