<?xml version="1.0" standalone="no"?><!DOCTYPE svg PUBLIC "-//W3C//DTD SVG 1.1//EN" "http://www.w3.org/Graphics/SVG/1.1/DTD/svg11.dtd"><svg t="1752818651311" class="icon" viewBox="0 0 1024 1024" version="1.1" xmlns="http://www.w3.org/2000/svg" p-id="9026" xmlns:xlink="http://www.w3.org/1999/xlink" width="200" height="200"><path d="M512 192C298.666667 192 116.48 324.693333 42.666667 512c73.813333 187.306667 256 320 469.333333 320 213.546667 0 395.52-132.693333 469.333333-320-73.813333-187.306667-255.786667-320-469.333333-320z m0 533.333333c-117.76 0-213.333333-95.573333-213.333333-213.333333s95.573333-213.333333 213.333333-213.333333 213.333333 95.573333 213.333333 213.333333-95.573333 213.333333-213.333333 213.333333z m0-341.333333c-70.613333 0-128 57.386667-128 128s57.386667 128 128 128 128-57.386667 128-128-57.386667-128-128-128z" fill="#8a8a8a" p-id="9027"></path></svg>