<?xml version="1.0" standalone="no"?><!DOCTYPE svg PUBLIC "-//W3C//DTD SVG 1.1//EN" "http://www.w3.org/Graphics/SVG/1.1/DTD/svg11.dtd"><svg t="1752818639877" class="icon" viewBox="0 0 1024 1024" version="1.1" xmlns="http://www.w3.org/2000/svg" p-id="8686" xmlns:xlink="http://www.w3.org/1999/xlink" width="200" height="200"><path d="M512 298.666667c119.466667 0 213.333333 93.866667 213.333333 213.333333 0 25.6-4.266667 55.466667-17.066666 76.8l123.733333 123.733333c64-55.466667 115.2-123.733333 145.066667-200.533333-72.533333-187.733333-256-320-469.333334-320-59.733333 0-115.2 12.8-170.666666 29.866667l93.866666 93.866666c25.6-12.8 55.466667-17.066667 81.066667-17.066666zM85.333333 183.466667l98.133334 98.133333 17.066666 17.066667C128 354.133333 72.533333 426.666667 42.666667 512c72.533333 187.733333 256 320 469.333333 320 64 0 128-12.8 187.733333-34.133333l17.066667 17.066666 123.733333 123.733334 55.466667-55.466667L140.8 128 85.333333 183.466667z m234.666667 234.666666L384 482.133333v29.866667c0 72.533333 55.466667 128 128 128 8.533333 0 17.066667 0 29.866667-4.266667l64 64c-29.866667 17.066667-59.733333 25.6-93.866667 25.6-119.466667 0-213.333333-93.866667-213.333333-213.333333 0-34.133333 8.533333-64 21.333333-93.866667z m183.466667-34.133333l132.266666 132.266667v-8.533334c0-72.533333-55.466667-128-128-128 0 4.266667 0 4.266667-4.266666 4.266667z" p-id="8687" fill="#8a8a8a"></path></svg>