<?xml version="1.0" standalone="no"?><!DOCTYPE svg PUBLIC "-//W3C//DTD SVG 1.1//EN" "http://www.w3.org/Graphics/SVG/1.1/DTD/svg11.dtd"><svg t="1742783310457" class="icon" viewBox="0 0 1024 1024" version="1.1" xmlns="http://www.w3.org/2000/svg" p-id="5600" xmlns:xlink="http://www.w3.org/1999/xlink" width="256" height="256"><path d="M962.22706284 143.79435639l-820.51297699 833.13780579a57.36722945 57.36722945 0 0 1-82.111897 0 59.58919981 59.58919981 0 0 1 0-83.32388032l820.61397581-833.23880463a57.36722945 57.36722945 0 0 1 82.01089818 0 59.58919981 59.58919981 0 0 1 0 83.32388031z" fill="#cdcdcd" p-id="5601"></path><path d="M878.88283133 978.26549551L58.26885551 145.02669088a59.58919981 59.58919981 0 0 1 0-83.32388032 57.36722945 57.36722945 0 0 1 82.11189701 0l820.51297698 833.23880463a59.58919981 59.58919981 0 0 1 0 83.32388032 57.36722945 57.36722945 0 0 1-82.01089817 0z" fill="#cdcdcd" p-id="5602"></path></svg>