<svg xmlns="http://www.w3.org/2000/svg" xmlns:xlink="http://www.w3.org/1999/xlink" fill="none" version="1.1" width="14" height="14" viewBox="0 0 14 14"><defs><clipPath id="master_svg0_667_039456/667_040549"><rect x="0" y="0" width="14" height="14" rx="0"/></clipPath></defs><g clip-path="url(#master_svg0_667_039456/667_040549)"><g><path d="M6.41667,9.29475298828125C4.27621,9.00956298828125,2.625,7.17678298828125,2.625,4.95831298828125C2.625,2.54206298828125,4.58375,0.58331298828125,7,0.58331298828125C9.41622,0.58331298828125,11.375,2.54206298828125,11.375,4.95831298828125C11.375,7.17678298828125,9.72382,9.00956298828125,7.58333,9.29475298828125L7.58333,10.49998298828125L10.5,10.49998298828125L10.5,11.66661298828125L7.58333,11.66661298828125L7.58333,14.00001298828125L6.41667,14.00001298828125L6.41667,11.66661298828125L3.5,11.66661298828125L3.5,10.49998298828125L6.41667,10.49998298828125L6.41667,9.29475298828125ZM7,8.16664298828125C8.771930000000001,8.16664298828125,10.20833,6.73024298828125,10.20833,4.95831298828125C10.20833,3.18639298828125,8.771930000000001,1.74998298828125,7,1.74998298828125C5.22808,1.74998298828125,3.79167,3.18639298828125,3.79167,4.95831298828125C3.79167,6.73024298828125,5.22808,8.16664298828125,7,8.16664298828125Z" fill="#F98981" fill-opacity="1"/></g></g></svg>