<svg xmlns="http://www.w3.org/2000/svg" xmlns:xlink="http://www.w3.org/1999/xlink" fill="none" version="1.1" width="40" height="40" viewBox="0 0 40 40"><defs><clipPath id="master_svg0_667_041953"><rect x="0" y="0" width="40" height="40" rx="0"/></clipPath></defs><g clip-path="url(#master_svg0_667_041953)"><g transform="matrix(1,0,0,-1,0,69.25)" style="opacity:0.20000000298023224;"><path d="M10.91354,59.1804Q11.07364,55.992000000000004,12.0391,49.4136Q12.7261,46.3075,15.4343,44.6643Q17.592100000000002,43.35497,19.9976,43.35497Q24.6238,43.35497,26.9415,47.074600000000004Q28.5262,49.6179,29.082,59.1876L29.085,59.238600000000005L29.0936,59.2889Q29.7938,63.375,33.6623,63.375Q38,63.375,38,58.0547Q38,56.2933,37.3383,52.0773Q36.5035,46.759100000000004,35.3885,44.367779999999996Q30.7123,34.624999416635,19.9976,34.625Q14.2324,34.625000583365,9.79752,37.92254Q6.34123,40.49246,4.44714,44.36137Q2.416549,48.509100000000004,1.7534054,57.991L1.75,58.039699999999996L1.75180194,58.0884Q1.947133,63.375,6.2516,63.375Q10.50387,63.375,10.91035,59.223600000000005L10.91246,59.2021L10.91354,59.1804Z" fill-rule="evenodd" fill="#00C28B" fill-opacity="1"/></g><g transform="matrix(1,0,0,-1,0,69.49996948242188)"><path d="M10.821855258789062,59.83918474121094Q10.984715258789063,56.581484741210936,11.966815258789062,49.86008474121094Q12.665715258789062,46.68648474121094,15.420715258789063,45.00748474121094Q17.615815258789063,43.66973474121094,20.062815258789062,43.66973474121094Q24.76901525878906,43.66973474121094,27.126715258789062,47.47028474121094Q28.738715258789064,50.06888474121094,29.304215258789064,59.84658474121093L29.307215258789064,59.89868474121094L29.31601525878906,59.95008474121094Q30.02821525878906,64.12498474121094,33.963515258789066,64.12498474121094Q38.37621525878906,64.12498474121094,38.37621525878906,58.68898474121094Q38.37621525878906,56.88938474121093,37.703015258789065,52.581684741210935Q36.85381525878906,47.14788474121094,35.71961525878906,44.70456474121094Q30.96261525878906,34.74998414516494,20.062815258789062,34.74998474121094Q14.198015258789063,34.74998533725694,9.686555258789063,38.119204741210936Q6.170555258789062,40.74499474121094,4.243745258789062,44.69801474121094Q2.1780792587890625,48.93588474121094,1.5034794787890624,58.62388474121094L1.5000152587890625,58.673684741210934L1.5018483287890625,58.72348474121094Q1.7005532587890624,64.12498474121094,6.079375258789063,64.12498474121094Q10.405105258789062,64.12498474121094,10.818605258789063,59.88338474121094L10.820745258789062,59.86138474121094L10.821855258789062,59.83918474121094ZM10.116285258789063,49.55648474121094L10.120905258789062,49.52488474121094L10.127665258789062,49.49358474121094Q10.990255258789063,45.511884741210935,14.444915258789063,43.40642474121094Q17.08941525878906,41.79473474121094,20.062815258789062,41.79473474121094Q25.812315258789063,41.79473474121094,28.72001525878906,46.48188474121093Q30.57821525878906,49.477184741210934,31.17291525878906,59.68418474121094Q31.632815258789062,62.24998474121094,33.963515258789066,62.24998474121094Q36.50121525878906,62.24998474121094,36.50121525878906,58.68898474121094Q36.50121525878906,57.034984741210934,35.85051525878906,52.87118474121094Q35.04211525878906,47.69798474121094,34.02781525878906,45.512984741210936Q29.780515258789062,36.62498474121094,20.062815258789062,36.62498474121094Q14.820915258789062,36.62498474121094,10.808485258789062,39.62150474121094Q7.656785258789062,41.97523474121094,5.9291852587890626,45.519584741210934Q4.028415258789062,49.41918474121094,3.3774952587890628,58.70338474121094Q3.5253652587890625,62.24998474121094,6.079375258789063,62.24998474121094Q8.693205258789064,62.24998474121094,8.950365258789063,59.72238474121094Q9.120365258789063,56.367184741210934,10.116285258789063,49.55648474121094Z" fill-rule="evenodd" fill="#00C28B" fill-opacity="1"/></g></g></svg>