<svg xmlns="http://www.w3.org/2000/svg" xmlns:xlink="http://www.w3.org/1999/xlink" fill="none" version="1.1" width="40" height="40" viewBox="0 0 40 40"><defs><clipPath id="master_svg0_667_041937"><rect x="0" y="0" width="40" height="40" rx="0"/></clipPath></defs><g clip-path="url(#master_svg0_667_041937)"><g style="opacity:0.20000000298023224;"><path d="M2.5,7.5L2.5,21.6789C2.5,23.005,3.035786,24.2911,3.9845800000000002,25.2175Q14.0031,35,17.5,35L22.5,35Q25.9969,35,36.0154,25.2175C36.9642,24.2911,37.5,23.005,37.5,21.6789L37.5,7.5C37.5,6.1192899999999995,36.3807,5,35,5L32.5,5C31.1193,5,30,6.1192899999999995,30,7.5L30,20Q25,26.25,20,25Q15,25,10,20L10,7.5C10,6.1192899999999995,8.88071,5,7.5,5L5,5C3.61929,5,2.5,6.1192899999999995,2.5,7.5Z" fill="#00C28B" fill-opacity="1"/></g><g><path d="M3.9845800000000002,25.2175C3.035786,24.2911,2.5,23.005,2.5,21.6789L2.5,7.5C2.5,6.1192899999999995,3.61929,5,5,5L7.5,5C8.88071,5,10,6.1192899999999995,10,7.5L10,16.6789C10,18.005000000000003,10.52524,19.3127,11.5375,20.1693Q15.7687,23.75,20,23.75Q24.2313,23.75,28.4625,20.1693C29.4748,19.3127,30,18.005000000000003,30,16.6789L30,7.5C30,6.1192899999999995,31.1193,5,32.5,5L35,5C36.3807,5,37.5,6.1192899999999995,37.5,7.5L37.5,21.6789C37.5,23.005,36.9642,24.2911,36.0154,25.2175Q25.9969,35,22.5,35L17.5,35Q14.0031,35,3.9845800000000002,25.2175ZM5.29451,23.876Q4.375,22.9781,4.375,21.6789L4.375,7.5Q4.375,6.875,5,6.875L7.5,6.875Q8.125,6.875,8.125,7.5L8.125,16.6789Q8.125,19.7378,10.32628,21.6006Q15.0819,25.625,20,25.625Q24.9181,25.625,29.6737,21.6006Q31.875,19.7378,31.875,16.6789L31.875,7.5Q31.875,6.875,32.5,6.875L35,6.875Q35.625,6.875,35.625,7.5L35.625,21.6789Q35.625,22.9781,34.7055,23.876Q25.2333,33.125,22.5,33.125L17.5,33.125Q14.7667,33.125,5.29451,23.876Z" fill-rule="evenodd" fill="#00C28B" fill-opacity="1"/></g></g></svg>