<svg xmlns="http://www.w3.org/2000/svg" xmlns:xlink="http://www.w3.org/1999/xlink" fill="none" version="1.1" width="40" height="40" viewBox="0 0 40 40"><defs><clipPath id="master_svg0_667_041926"><rect x="0" y="0" width="40" height="40" rx="0"/></clipPath></defs><g clip-path="url(#master_svg0_667_041926)"><g style="opacity:0.20000000298023224;"><path d="M35.9262184387207,20.9441C35.92611843872071,20.0131,35.4708184387207,19.0743,35.550218438720705,18.0656C35.591518438720705,17.5427,35.6065184387207,17.0098,35.595118438720704,16.4816C35.410618438720704,8.03586,28.445418438720704,1.25,20.018118438720705,1.25C19.942818438720703,1.25,19.8662184387207,1.250585616,19.790718438720702,1.25164062C15.677918438720702,1.3111723,11.820698438720704,2.95789,8.929688438720703,5.88852C6.0358584387207035,8.82207,4.442109438720703,12.7073,4.442109438720703,16.828400000000002C4.442109438720703,17.261,4.460156438720703,17.6981,4.495781438720703,18.1273C4.580624438720703,19.1511,4.145694732620703,20.5405,4.145625032480703,21.0434C4.145618438720703,21.6597,4.145660497220703,22.5876,4.145660497220703,23.392C4.145660497220703,25.9244,6.493478438720703,28.0578,8.795038438720702,29.4017C9.878438438720703,30.0342,10.551448438720703,31.2089,10.551448438720703,32.4672C10.551448438720703,34.3972,11.305658438720704,35.1628,12.620508438720703,36.7392C14.029218438720703,38.4281,15.846918438720703,39.3583,17.738618438720703,39.3583L22.302318438720704,39.3583C24.193918438720704,39.3583,26.011518438720703,38.4281,27.420418438720702,36.7392C28.735318438720704,35.1628,29.489418438720705,34.3972,29.489418438720705,32.4672C29.489418438720705,31.2023,30.167318438720702,30.0365,31.258618438720703,29.4058C33.5846184387207,28.0617,35.9262184387207,25.9273,35.9262184387207,23.392C35.9262184387207,22.5515,35.9262184387207,21.875,35.9262184387207,20.9441Z" fill-rule="evenodd" fill="#00C28B" fill-opacity="1"/></g><g><path d="M35.90558474121094,20.9441C35.90548474121094,20.0131,35.45018474121093,19.0743,35.52958474121094,18.0656C35.57088474121094,17.5427,35.58588474121093,17.0098,35.57448474121094,16.4816C35.38998474121094,8.03586,28.42478474121094,1.25,19.99748474121094,1.25C19.922184741210938,1.25,19.845584741210935,1.250585616,19.770084741210937,1.25164062C15.657284741210937,1.3111723,11.800064741210939,2.95789,8.909054741210937,5.88852C6.015224741210938,8.82207,4.421475741210937,12.7073,4.421475741210937,16.828400000000002C4.421475741210937,17.261,4.439522741210937,17.6981,4.475147741210938,18.1273C4.559990741210937,19.1511,4.125061035110938,20.5405,4.124991334970938,21.0434C4.1249847412109375,21.6597,4.1250267997109376,22.5876,4.1250267997109376,23.392C4.1250267997109376,25.9244,6.472844741210937,28.0578,8.774404741210937,29.4017C9.857804741210938,30.0342,10.530814741210937,31.2089,10.530814741210937,32.4672C10.530814741210937,34.3972,11.285024741210938,35.1628,12.599874741210938,36.7392C14.008584741210937,38.4281,15.826284741210937,39.3583,17.717984741210937,39.3583L22.28168474121094,39.3583C24.17328474121094,39.3583,25.990884741210937,38.4281,27.399784741210937,36.7392C28.714684741210938,35.1628,29.46878474121094,34.3972,29.46878474121094,32.4672C29.46878474121094,31.2023,30.146684741210937,30.0365,31.237984741210937,29.4058C33.56398474121094,28.0617,35.90558474121094,25.9273,35.90558474121094,23.392C35.90558474121094,22.5515,35.90558474121094,21.875,35.90558474121094,20.9441ZM34.144184741210935,21.5869Q33.729384741210936,20,33.66038474121093,17.9184Q33.71508474121094,17.2254,33.69988474121094,16.521900000000002Q33.57838474121094,10.95807,29.566884741210938,7.03999Q25.558584741210936,3.125,19.99748474121094,3.125L19.881984741210935,3.12548L19.79068474121094,3.12653Q14.187484741210938,3.20764,10.243864741210938,7.20529Q6.296474741210938,11.20687,6.296474741210938,16.828400000000002Q6.296474741210938,17.403,6.343724741210938,17.9723Q6.504404741210937,19.9111,5.895804741210938,21.6598Q5.895774741210937,22.3966,5.895804741210938,23.392Q6.296464741210937,26.25,9.719854741210938,27.7825Q12.405814741210937,29.3505,12.405814741210937,32.4672Q12.405814741210937,33.59,13.788354741210938,35.2379Q13.952654741210937,35.4337,14.039764741210938,35.5382Q15.662184741210938,37.4833,17.717984741210937,37.4833L22.28168474121094,37.4833Q24.337284741210937,37.4833,25.960084741210938,35.538Q26.04668474121094,35.4342,26.211084741210936,35.2382Q27.59378474121094,33.5902,27.59378474121094,32.4672Q27.59378474121094,29.3464,30.29968474121094,27.7825Q34.46158474121094,25.3775,34.144184741210935,23.392Q34.144184741210935,22.4565,34.144184741210935,21.5869ZM9.407924741210937,19.9217C9.407924741210937,21.4431,10.755464741210938,22.6118,12.261544741210937,22.3966L15.746384741210937,22.3966C17.479384741210936,22.3966,18.157884741210935,20.6191,18.157884741210935,19.375L18.157884741210935,16.554299999999998C18.157884741210935,15.1735,17.038684741210936,14.0543,15.657884741210937,14.0543L12.479364741210938,14.0543C11.098654741210938,14.0543,9.407924741210937,15.4967,9.407924741210937,16.8774L9.407924741210937,19.9217ZM30.65788474121094,19.9217C30.65788474121094,21.4431,29.31038474121094,22.6118,27.80428474121094,22.3966L24.31948474121094,22.3966C22.58648474121094,22.3966,21.90788474121094,20.6191,21.90788474121094,19.375L21.90788474121094,16.554299999999998C21.90788474121094,15.1735,23.027184741210938,14.0543,24.40788474121094,14.0543L27.58648474121094,14.0543C28.967184741210936,14.0543,30.65788474121094,15.4967,30.65788474121094,16.8774L30.65788474121094,19.9217ZM11.282924741210937,19.9217Q11.282924741210937,20.207,11.498454741210939,20.3939Q11.713954741210937,20.5808,11.996354741210936,20.5405L15.604384741210938,20.5405Q16.282884741210935,20.3939,16.282884741210935,19.375L16.282884741210935,16.554299999999998Q16.282884741210935,16.2954,16.099884741210936,16.112299999999998Q15.916884741210938,15.9293,15.657884741210937,15.9293L12.479364741210938,15.9293C11.854364741210937,15.9293,11.282924741210937,16.618499999999997,11.282924741210937,16.8774L11.282924741210937,19.9217ZM28.78288474121094,19.9217Q28.78288474121094,20.207,28.567384741210937,20.3939Q28.351884741210938,20.5808,28.06948474121094,20.5405L24.46148474121094,20.5405Q23.78288474121094,20.3939,23.78288474121094,19.375L23.78288474121094,16.554299999999998Q23.78288474121094,16.2954,23.96598474121094,16.112299999999998Q24.14898474121094,15.9293,24.40788474121094,15.9293L27.58648474121094,15.9293C28.21148474121094,15.9293,28.78288474121094,16.618499999999997,28.78288474121094,16.8774L28.78288474121094,19.9217ZM17.53298474121094,27.1793L17.53298474121094,29.6793C17.53298474121094,30.0244,17.812784741210937,30.3043,18.15798474121094,30.3043L18.78298474121094,30.3043C19.128184741210937,30.3043,19.40798474121094,30.0244,19.40798474121094,29.6793L19.40798474121094,27.1793C19.40798474121094,26.8341,19.128184741210937,26.5543,18.78298474121094,26.5543L18.15798474121094,26.5543C17.812784741210937,26.5543,17.53298474121094,26.8341,17.53298474121094,27.1793ZM20.65798474121094,27.1793L20.65798474121094,29.6793C20.65798474121094,30.0244,20.937784741210937,30.3043,21.28298474121094,30.3043L21.90798474121094,30.3043C22.253184741210937,30.3043,22.53298474121094,30.0244,22.53298474121094,29.6793L22.53298474121094,27.1793C22.53298474121094,26.8341,22.253184741210937,26.5543,21.90798474121094,26.5543L21.28298474121094,26.5543C20.937784741210937,26.5543,20.65798474121094,26.8341,20.65798474121094,27.1793Z" fill-rule="evenodd" fill="#00C28B" fill-opacity="1"/></g></g></svg>