<svg xmlns="http://www.w3.org/2000/svg" xmlns:xlink="http://www.w3.org/1999/xlink" fill="none" version="1.1" width="40" height="40" viewBox="0 0 40 40"><defs><clipPath id="master_svg0_667_041945"><rect x="0" y="0" width="40" height="40" rx="0"/></clipPath></defs><g clip-path="url(#master_svg0_667_041945)"><g style="opacity:0.20000000298023224;"><path d="M10.88314027770996,30.40170047683716Q11.046000277709961,27.144000476837157,12.02810027770996,20.422600476837157Q12.72700027770996,17.24900047683716,15.482000277709961,15.570000476837158Q17.67710027770996,14.232250476837159,20.12410027770996,14.232250476837159Q24.83030027770996,14.232250476837159,27.18800027770996,18.03280047683716Q28.800000277709962,20.631400476837157,29.365500277709963,30.409100476837157L29.368500277709963,30.46120047683716L29.37730027770996,30.512600476837157Q30.08950027770996,34.68750047683716,34.024800277709964,34.68750047683716Q38.43750027770996,34.68750047683716,38.43750027770996,29.25150047683716Q38.43750027770996,27.451900476837157,37.764300277709964,23.14420047683716Q36.91510027770996,17.710400476837158,35.78090027770996,15.267080476837158Q31.02390027770996,5.312499880791158,20.12410027770996,5.312500476837158Q14.259300277709961,5.312501072883158,9.747840277709962,8.681720476837159Q6.231840277709961,11.307510476837159,4.30503027770996,15.260530476837157Q2.239364277709961,19.49840047683716,1.5647644977099608,29.186400476837157L1.561300277709961,29.23620047683716L1.563133347709961,29.28600047683716Q1.7618382777099608,34.68750047683716,6.140660277709961,34.68750047683716Q10.46639027770996,34.68750047683716,10.879890277709961,30.44590047683716L10.88203027770996,30.423900476837158L10.88314027770996,30.40170047683716Z" fill-rule="evenodd" fill="#00C28B" fill-opacity="1"/></g><g><path d="M10.821855258789062,30.46418474121094Q10.984715258789063,27.206484741210936,11.966815258789062,20.485084741210937Q12.665715258789062,17.31148474121094,15.420715258789063,15.632484741210938Q17.615815258789063,14.294734741210938,20.062815258789062,14.294734741210938Q24.76901525878906,14.294734741210938,27.126715258789062,18.09528474121094Q28.738715258789064,20.693884741210937,29.304215258789064,30.471584741210936L29.307215258789064,30.52368474121094L29.31601525878906,30.575084741210937Q30.02821525878906,34.74998474121094,33.963515258789066,34.74998474121094Q38.37621525878906,34.74998474121094,38.37621525878906,29.313984741210938Q38.37621525878906,27.514384741210936,37.703015258789065,23.20668474121094Q36.85381525878906,17.772884741210937,35.71961525878906,15.329564741210937Q30.96261525878906,5.374984145164937,20.062815258789062,5.3749847412109375Q14.198015258789063,5.374985337256938,9.686555258789063,8.744204741210938Q6.170555258789062,11.369994741210938,4.243745258789062,15.323014741210937Q2.1780792587890625,19.560884741210938,1.5034794787890624,29.248884741210937L1.5000152587890625,29.298684741210938L1.5018483287890625,29.34848474121094Q1.7005532587890624,34.74998474121094,6.079375258789063,34.74998474121094Q10.405105258789062,34.74998474121094,10.818605258789063,30.50838474121094L10.820745258789062,30.486384741210937L10.821855258789062,30.46418474121094ZM10.116285258789063,20.181484741210937L10.120905258789062,20.14988474121094L10.127665258789062,20.118584741210938Q10.990255258789063,16.136884741210938,14.444915258789063,14.031424741210937Q17.08941525878906,12.419734741210938,20.062815258789062,12.419734741210938Q25.812315258789063,12.419734741210938,28.72001525878906,17.106884741210937Q30.57821525878906,20.102184741210937,31.17291525878906,30.309184741210938Q31.632815258789062,32.87498474121094,33.963515258789066,32.87498474121094Q36.50121525878906,32.87498474121094,36.50121525878906,29.313984741210938Q36.50121525878906,27.659984741210938,35.85051525878906,23.49618474121094Q35.04211525878906,18.322984741210938,34.02781525878906,16.137984741210936Q29.780515258789062,7.2499847412109375,20.062815258789062,7.2499847412109375Q14.820915258789062,7.2499847412109375,10.808485258789062,10.246504741210938Q7.656785258789062,12.600234741210937,5.9291852587890626,16.144584741210938Q4.028415258789062,20.044184741210938,3.3774952587890628,29.328384741210936Q3.5253652587890625,32.87498474121094,6.079375258789063,32.87498474121094Q8.693205258789064,32.87498474121094,8.950365258789063,30.347384741210938Q9.120365258789063,26.992184741210938,10.116285258789063,20.181484741210937Z" fill-rule="evenodd" fill="#00C28B" fill-opacity="1"/></g></g></svg>