<?xml version="1.0" standalone="no"?><!DOCTYPE svg PUBLIC "-//W3C//DTD SVG 1.1//EN" "http://www.w3.org/Graphics/SVG/1.1/DTD/svg11.dtd"><svg t="1754461162426" class="icon" viewBox="0 0 1024 1024" version="1.1" xmlns="http://www.w3.org/2000/svg" p-id="8335" xmlns:xlink="http://www.w3.org/1999/xlink" width="200" height="200"><path d="M440.85 705.81c4.08-10.25 3.2-22.89-2.32-33.16-5.52-10.27-14.83-16.65-24.42-16.65H107.69c-14.83 0-25.79 14.84-24.49 33.16 1.3 18.31 14.37 33.16 29.19 33.16h306.37c9.58 0.02 18.01-6.3 22.09-16.51zM112.39 444.25h125.32c14.82 0 25.78-14.88 24.47-33.19-1.32-18.31-14.39-33.14-29.22-33.13H107.7c-14.83 0-25.8 14.84-24.5 33.16s14.37 33.16 29.19 33.16z m227.47 105.31c-1.28-18.31-14.37-33.16-29.2-33.16H30.01c-13.96 0-24.49 13.15-24.6 30.01l0.45 6.37c2.48 16.86 14.89 29.98 28.84 29.98h280.65c14.83-0.04 25.8-14.89 24.51-33.2zM651.15 776.62c-3.43 0-6.34-0.18-8.88-0.54-3.17-0.46-5.84-1.24-8.17-2.39-3.26-1.61-5.87-4.13-7.55-7.28-1.18-2.2-2.03-4.79-2.61-7.91l-27.6-153.29-25.41 152.97c-0.46 3.22-1.29 5.91-2.52 8.23-1.63 3.05-4.1 5.51-7.13 7.13-2.3 1.22-4.94 2.05-8.08 2.53-2.49 0.37-5.41 0.55-8.96 0.55-3.62 0-6.62-0.17-9.2-0.54-3.23-0.46-5.93-1.24-8.27-2.4-3.16-1.56-5.75-3.99-7.47-7.01-1.35-2.35-2.24-5.1-2.72-8.38l-48.17-259.26c-0.65-3.86-1-6.91-1.06-9.31-0.11-4.36 1.02-8.1 3.37-11.08 1.7-2.16 4.88-4.91 10.42-5.81 2.38-0.39 5.28-0.57 8.87-0.57 3.39 0 6.08 0.13 8.24 0.41 3.29 0.42 5.97 1.33 8.22 2.78 2.93 1.91 5.04 4.65 6.11 7.94 0.53 1.62 0.91 3.46 1.18 5.62l30.43 174.62 28.9-174.49c0.41-2.29 0.93-4.24 1.61-5.98 1.26-3.22 3.44-5.85 6.31-7.62 2.13-1.31 4.67-2.2 7.79-2.72 2.35-0.39 5.15-0.58 8.56-0.58 3.3 0 5.97 0.2 8.18 0.61 2.86 0.54 5.24 1.41 7.3 2.67 2.9 1.79 5.08 4.42 6.33 7.63 0.67 1.72 1.2 3.68 1.61 5.98l31.45 176.48 30.22-176.86c0.32-1.65 0.65-3.14 0.99-4.44 0.94-3.63 3.09-6.63 6.2-8.65 2.11-1.36 4.61-2.28 7.67-2.83 2.29-0.4 5.03-0.6 8.38-0.6 3.59 0 6.51 0.26 8.93 0.78 5.21 1.15 8.18 3.92 9.76 6.03 2.19 2.96 3.24 6.61 3.13 10.87-0.06 2.33-0.35 5.27-0.87 9.01l-0.03 0.23-48.36 259.32c-0.62 3.32-1.62 6.08-3.05 8.43-1.79 2.93-4.28 5.2-7.38 6.74-2.31 1.14-4.91 1.92-7.94 2.38-2.53 0.42-5.37 0.6-8.73 0.6zM784.55 779.44c-7.11 0-13.85-0.96-20.03-2.84-5.93-1.81-11.33-4.09-16.06-6.76-4.71-2.66-8.77-5.51-12.08-8.45-3.56-3.16-6.08-5.97-7.72-8.6-1.75-2.81-3.03-6.23-3.78-10.17-0.65-3.35-0.96-7.52-0.96-12.72 0-3.55 0.11-6.45 0.32-8.86 0.25-2.78 0.65-5.09 1.21-7.06 0.93-3.24 2.39-5.72 4.46-7.59 2.49-2.24 5.68-3.46 8.99-3.46 5.67 0 9.96 3.66 13.07 6.86 2.04 2.1 4.77 4.46 8.11 7.03 3.16 2.43 7.09 4.78 11.71 6.98 3.86 1.84 8.53 2.78 13.87 2.78 3.65 0 6.85-0.71 9.77-2.16 3-1.49 5.52-3.56 7.72-6.34 2.29-2.9 4.11-6.63 5.42-11.09 1.4-4.8 2.12-10.46 2.12-16.81 0-6.53-0.91-12.04-2.72-16.37-1.88-4.51-4.37-8.51-7.4-11.87-3.33-3.69-7.21-7.13-11.51-10.23-4.92-3.54-9.96-7.15-15.11-10.83-5.5-3.93-10.91-8.32-16.07-13.07-5.53-5.08-10.53-11.12-14.86-17.95-4.36-6.87-7.91-14.96-10.57-24.04-2.66-9.09-4.02-19.98-4.02-32.35 0-12.69 1.55-24.26 4.6-34.38 3.14-10.41 7.64-19.36 13.37-26.59 5.91-7.46 13.08-13.23 21.3-17.16 8.2-3.92 17.14-5.91 26.56-5.91 4.93 0 9.93 0.67 14.87 1.98 4.75 1.26 9.3 2.97 13.55 5.09 4.26 2.13 8.12 4.57 11.49 7.25 3.85 3.07 6.26 5.5 7.83 7.91 1.38 2.13 2.28 3.86 2.85 5.47 0.5 1.42 0.89 3.04 1.18 4.94 0.24 1.61 0.42 3.39 0.53 5.47 0.1 1.96 0.16 4.41 0.16 7.3 0 2.83-0.08 5.41-0.24 7.67-0.18 2.52-0.45 4.64-0.82 6.49-0.62 3.02-1.68 5.45-3.24 7.43-2.5 3.15-6.14 4.96-9.98 4.96-5 0-9.01-3.1-11.95-5.8-2-1.83-4.54-3.97-7.52-6.34-2.57-2.03-5.72-3.96-9.36-5.71-2.96-1.42-6.29-2.11-10.18-2.11-3.28 0-5.94 0.59-8.14 1.82-2.39 1.33-4.29 3.04-5.83 5.23-1.7 2.41-3.01 5.42-3.91 8.94-1 3.9-1.5 8.14-1.5 12.6 0 6.39 0.91 11.82 2.72 16.15 1.88 4.52 4.4 8.56 7.49 12 3.39 3.78 7.32 7.3 11.67 10.46 4.84 3.52 9.94 7.19 15.15 10.91 5.43 3.88 10.84 8.2 16.07 12.84 5.66 5.02 10.76 11 15.15 17.76 4.44 6.84 8.04 14.92 10.71 24.03 2.66 9.09 4.02 19.83 4.02 31.91 0 14.14-1.74 27-5.18 38.22-3.51 11.45-8.51 21.38-14.86 29.52-6.57 8.42-14.47 14.87-23.46 19.18-8.97 4.27-18.72 6.44-28.98 6.44z" p-id="8336" fill="#8a8a8a"></path><path d="M176.04 867.8c-15.45 0-27.98-12.51-28-27.96-0.02-15.46 12.5-28.02 27.96-28.04l704.5-1c9.63 0 18.65-3.74 25.44-10.52 6.78-6.79 10.52-15.81 10.52-25.4l-0.12-468.86L606.2 444.2a28.043 28.043 0 0 1-22.6 0.09L228.85 289.45a27.993 27.993 0 0 1-16.8-25.55c-0.1-24.61 9.49-47.72 26.99-65.09 17.32-17.19 40.33-26.7 64.8-26.81h0.19l576.31-1.11c50.72 0 91.96 41.22 91.97 91.89l0.13 512.09c0.01 24.56-9.55 47.64-26.91 65.01-17.36 17.37-40.45 26.93-65 26.93l-704.46 1c-0.01-0.01-0.02-0.01-0.03-0.01z m96.02-620.59l322.62 140.81 317.7-141.55c-5.96-11.62-18.06-19.59-31.98-19.59l-576.28 1.11c-9.7 0.04-18.8 3.79-25.63 10.56a35.568 35.568 0 0 0-6.43 8.66z" p-id="8337" fill="#8a8a8a"></path></svg>